<?xml version="1.0" standalone="no"?>
<!DOCTYPE svg PUBLIC "-//W3C//DTD SVG 20010904//EN"
 "http://www.w3.org/TR/2001/REC-SVG-20010904/DTD/svg10.dtd">
<svg version="1.0" xmlns="http://www.w3.org/2000/svg"
 width="494.000000pt" height="494.000000pt" viewBox="0 0 494.000000 494.000000"
 preserveAspectRatio="xMidYMid meet">
<metadata>
Created by potrace 1.14, written by Peter Selinger 2001-2017
</metadata>
<g transform="translate(0.000000,494.000000) scale(0.100000,-0.100000)"
fill="#000000" stroke="none">
<path d="M2455 4536 c-61 -40 -260 -151 -267 -148 -4 1 -8 -2 -8 -6 0 -9 -37
-29 -54 -30 -5 0 -12 -5 -15 -10 -9 -14 -291 -175 -307 -175 -7 0 -11 -3 -9
-6 2 -4 -45 -34 -103 -68 -59 -33 -147 -84 -196 -112 -48 -29 -93 -53 -100
-54 -6 -1 -13 -5 -16 -8 -7 -9 -279 -169 -310 -183 -14 -6 -27 -13 -30 -17 -3
-3 -56 -34 -118 -70 l-112 -64 0 -197 0 -198 40 0 40 0 0 174 c0 127 3 176 13
184 6 5 143 85 302 177 160 92 319 184 355 205 36 21 153 88 260 150 107 62
224 129 260 150 316 184 388 224 405 224 17 -1 730 -405 745 -423 3 -3 40 -24
83 -46 43 -22 86 -47 95 -55 10 -8 22 -16 27 -17 6 -1 35 -16 66 -35 30 -18
173 -100 317 -183 l261 -150 1 -177 0 -178 40 0 40 0 0 198 0 197 -130 75
c-72 41 -130 78 -130 82 0 4 -3 7 -7 6 -15 -4 -382 207 -395 226 -4 6 -8 8 -8
3 0 -4 -18 4 -40 18 -22 14 -44 25 -50 25 -5 0 -10 5 -10 10 0 6 -5 10 -10 10
-21 0 -308 174 -303 184 3 5 1 6 -5 2 -6 -4 -85 36 -174 87 -328 190 -410 237
-417 236 -3 0 -15 -6 -26 -13z"/>
<path d="M2070 3495 c0 -8 9 -15 20 -15 11 0 20 7 20 15 0 8 -9 15 -20 15 -11
0 -20 -7 -20 -15z"/>
<path d="M2541 3491 c-6 -11 -11 -24 -11 -30 0 -17 32 -13 46 7 12 16 13 15
14 -5 0 -12 -13 -32 -30 -46 -47 -40 -40 -57 25 -57 48 0 55 2 55 20 0 14 -7
20 -22 20 -20 0 -20 1 -4 19 11 12 16 31 14 53 -3 30 -6 33 -40 36 -28 2 -39
-1 -47 -17z"/>
<path d="M2668 3499 c-25 -14 -25 -100 0 -122 41 -37 92 -3 92 61 0 60 -45 89
-92 61z m47 -57 c0 -46 -19 -44 -23 2 -3 28 0 37 10 34 7 -3 13 -19 13 -36z"/>
<path d="M2787 3503 c-10 -9 -9 -53 1 -53 4 0 13 5 20 12 6 6 15 9 19 5 3 -4
-8 -22 -25 -40 -49 -51 -43 -67 23 -67 43 0 55 3 55 15 0 9 -9 19 -21 23 -19
7 -19 9 -5 21 21 18 21 77 0 85 -21 8 -59 8 -67 -1z"/>
<path d="M2908 3499 c-25 -14 -25 -100 0 -122 41 -37 92 -3 92 62 0 61 -43 89
-92 60z m52 -55 c0 -24 -5 -34 -15 -34 -10 0 -15 10 -15 33 0 19 3 37 6 40 13
13 24 -5 24 -39z"/>
<path d="M1988 3469 c-26 -14 -22 -34 9 -57 l28 -20 -28 5 c-15 3 -27 1 -27
-4 0 -16 23 -33 45 -33 47 0 62 54 20 70 -14 5 -25 12 -25 15 0 3 11 3 25 -1
27 -7 33 4 13 24 -15 15 -37 15 -60 1z"/>
<path d="M2153 3473 c-21 -4 -23 -10 -23 -59 0 -47 3 -55 18 -52 12 2 18 14
20 41 5 53 32 51 32 -3 0 -29 4 -40 15 -40 11 0 15 13 15 54 0 65 -9 72 -77
59z"/>
<path d="M2263 3473 c-17 -6 -17 -85 -1 -101 17 -17 58 -15 65 3 7 21 -4 32
-19 17 -20 -20 -28 -13 -28 24 0 34 2 36 25 30 27 -7 32 3 13 22 -12 12 -33
14 -55 5z"/>
<path d="M2360 3458 c-21 -23 -21 -58 2 -85 13 -16 60 -17 76 -1 20 20 13 30
-17 23 -17 -3 -32 -2 -36 4 -4 7 8 11 34 11 47 0 54 17 21 50 -26 26 -54 25
-80 -2z m55 -18 c3 -5 -1 -10 -9 -10 -9 0 -16 5 -16 10 0 6 4 10 9 10 6 0 13
-4 16 -10z"/>
<path d="M2080 3415 c0 -42 3 -55 15 -55 12 0 15 13 15 55 0 42 -3 55 -15 55
-12 0 -15 -13 -15 -55z"/>
<path d="M965 3036 c-81 -27 -119 -49 -171 -98 -103 -97 -138 -192 -132 -352
3 -87 8 -110 35 -167 51 -109 153 -191 272 -219 86 -20 235 -9 296 22 59 30
141 109 172 166 l22 40 -38 25 -39 26 -25 -37 c-30 -47 -84 -100 -118 -118
-15 -7 -51 -17 -81 -22 -64 -10 -115 7 -162 54 -120 120 -105 497 23 582 53
34 135 31 189 -8 45 -32 93 -108 114 -177 12 -41 14 -43 50 -43 l38 0 0 160 0
160 -39 0 c-22 0 -42 -4 -46 -9 -6 -11 -18 -9 -90 13 -61 19 -214 20 -270 2z"/>
<path d="M2763 3017 c-6 -13 -23 -54 -38 -93 -16 -38 -33 -72 -39 -76 -6 -4
-8 -8 -4 -8 4 0 -22 -71 -58 -157 -36 -87 -81 -197 -100 -245 -20 -48 -47 -99
-61 -113 -25 -24 -39 -30 -88 -37 -15 -2 -21 -12 -23 -41 l-3 -37 180 0 181 0
0 40 c0 38 -2 40 -29 40 -45 0 -81 17 -81 38 0 10 9 46 21 80 l21 62 127 0
128 0 32 -81 c17 -45 30 -84 28 -86 -3 -2 -27 -6 -56 -10 l-51 -6 0 -38 0 -39
230 0 230 0 0 40 c0 38 -2 40 -30 40 -60 0 -82 35 -196 320 -58 146 -107 270
-108 275 -2 6 -10 27 -20 48 -9 20 -23 53 -30 72 l-15 35 -69 0 c-62 0 -70 -2
-79 -23z m45 -311 c13 -41 30 -82 37 -93 24 -30 18 -53 -12 -54 -16 -1 -54 -2
-85 -4 -71 -4 -71 -2 -24 110 18 44 36 88 39 98 11 31 22 18 45 -57z"/>
<path d="M1550 2995 c0 -23 6 -37 19 -44 10 -6 21 -8 24 -5 2 3 21 -2 41 -10
l36 -15 0 -305 c0 -202 -4 -307 -11 -311 -5 -4 -31 -10 -57 -13 -46 -7 -47 -8
-50 -45 l-3 -37 385 0 386 0 0 145 0 145 -28 0 c-24 0 -32 -7 -52 -50 -13 -27
-27 -50 -32 -50 -5 0 -7 -4 -4 -9 3 -5 -11 -28 -32 -51 l-38 -43 -101 -1 c-72
-1 -106 3 -115 12 -10 10 -13 81 -13 317 0 167 3 306 6 309 4 4 29 9 57 13 50
6 50 6 54 44 l4 39 -238 0 -238 0 0 -35z"/>
<path d="M3350 2990 c0 -37 2 -40 29 -40 15 0 41 -10 56 -22 50 -39 55 -67 55
-320 0 -274 -6 -297 -75 -312 -22 -4 -46 -10 -52 -12 -7 -2 -13 -19 -13 -39
l0 -35 190 0 190 0 0 39 c0 37 -1 39 -39 45 -22 3 -53 17 -68 30 l-28 24 -3
211 c-2 116 1 211 5 211 5 0 15 -10 23 -23 8 -13 109 -141 225 -285 l209 -262
63 0 62 0 3 350 c3 345 3 350 25 372 13 12 40 24 65 27 41 6 43 8 46 44 l3 37
-190 0 -191 0 0 -40 c0 -36 3 -40 25 -40 14 0 25 -4 25 -10 0 -5 6 -7 13 -4
24 9 59 -30 68 -76 4 -25 8 -110 9 -189 l0 -144 -50 64 c-28 35 -81 102 -119
149 -175 217 -219 275 -215 282 3 4 -74 8 -170 8 l-176 0 0 -40z"/>
<path d="M810 1852 l0 -198 83 -46 c45 -26 99 -58 120 -72 21 -14 40 -26 43
-26 12 0 324 -183 324 -190 0 -4 6 -7 13 -7 6 0 39 -16 72 -35 154 -89 859
-497 933 -540 46 -26 85 -48 88 -48 3 0 69 37 147 83 78 46 255 148 392 227
138 78 286 164 330 190 44 26 166 97 270 157 105 60 268 154 362 209 l173 99
0 198 0 197 -40 0 -40 0 0 -177 0 -178 -163 -93 c-89 -51 -236 -136 -327 -188
-91 -53 -241 -140 -335 -194 -93 -53 -300 -172 -460 -265 -159 -92 -295 -169
-302 -172 -7 -3 -77 32 -155 78 -79 45 -168 96 -198 114 -30 17 -131 76 -225
130 -93 54 -210 122 -260 150 -49 28 -178 102 -285 164 -107 62 -259 150 -337
195 l-143 81 0 178 0 177 -40 0 -40 0 0 -198z"/>
<path d="M1286 1859 c-53 -41 -21 -129 46 -129 18 0 39 10 56 28 l27 27 -24 3
c-13 2 -27 -2 -31 -8 -4 -6 -18 -10 -31 -8 -18 2 -25 10 -27 31 -4 32 21 46
49 29 22 -14 59 -16 59 -3 0 16 -52 51 -75 51 -12 0 -34 -9 -49 -21z"/>
<path d="M1420 1827 c0 -62 20 -97 56 -97 42 0 64 33 64 95 0 48 -3 55 -19 55
-17 0 -20 -8 -23 -52 -2 -39 -7 -53 -18 -53 -11 0 -16 14 -18 53 -3 44 -6 52
-23 52 -16 0 -19 -7 -19 -53z"/>
<path d="M1550 1860 c0 -11 7 -20 15 -20 12 0 15 -13 15 -55 0 -48 2 -55 20
-55 18 0 20 7 20 55 0 30 5 55 10 55 6 0 10 9 10 20 0 17 -7 20 -45 20 -38 0
-45 -3 -45 -20z"/>
<path d="M2028 1869 c-10 -5 -18 -21 -18 -35 0 -19 8 -29 30 -37 31 -12 37
-21 20 -32 -5 -3 -10 -1 -10 4 0 6 -9 11 -20 11 -13 0 -20 -7 -20 -19 0 -20
18 -31 54 -31 49 0 63 57 21 84 -14 9 -25 24 -25 33 0 14 2 14 20 -2 23 -21
39 -12 24 13 -13 20 -52 26 -76 11z"/>
<path d="M2130 1805 c0 -68 2 -75 20 -75 16 0 20 7 20 30 0 23 4 30 20 30 16
0 20 -7 20 -30 0 -23 4 -30 20 -30 18 0 20 7 20 75 0 68 -2 75 -20 75 -16 0
-20 -7 -20 -30 0 -23 -4 -30 -20 -30 -16 0 -20 7 -20 30 0 23 -4 30 -20 30
-18 0 -20 -7 -20 -75z"/>
<path d="M2292 1818 c-27 -77 -27 -88 -2 -88 11 0 20 5 20 10 0 14 47 13 52
-1 2 -6 13 -9 25 -7 21 3 21 4 -9 76 -39 92 -55 94 -86 10z m58 -14 c0 -26
-17 -33 -26 -9 -8 20 3 48 16 40 5 -3 10 -17 10 -31z"/>
<path d="M2394 1863 c4 -9 15 -43 24 -75 14 -47 21 -58 39 -58 17 0 25 12 42
62 26 76 26 88 2 88 -14 0 -22 -12 -31 -47 l-13 -48 -14 48 c-11 36 -19 47
-35 47 -15 0 -18 -4 -14 -17z"/>
<path d="M2540 1805 l0 -75 40 0 c33 0 40 3 40 20 0 13 -7 20 -20 20 -11 0
-20 5 -20 10 0 6 9 10 20 10 11 0 20 7 20 15 0 8 -9 15 -20 15 -11 0 -20 5
-20 10 0 6 9 10 20 10 13 0 20 7 20 20 0 17 -7 20 -40 20 l-40 0 0 -75z"/>
<path d="M3000 1805 l0 -75 39 0 c23 0 46 7 55 16 18 17 22 54 6 54 -5 0 -7
13 -4 29 7 34 -15 51 -65 51 l-31 0 0 -75z m60 30 c0 -8 -4 -15 -10 -15 -5 0
-10 7 -10 15 0 8 5 15 10 15 6 0 10 -7 10 -15z m10 -49 c0 -8 -7 -16 -15 -20
-15 -5 -21 14 -8 27 11 12 23 8 23 -7z"/>
<path d="M3130 1805 l0 -75 40 0 c33 0 40 3 40 20 0 15 -7 20 -25 20 -14 0
-25 5 -25 10 0 6 11 10 25 10 16 0 25 6 25 15 0 9 -9 15 -25 15 -14 0 -25 5
-25 10 0 6 11 10 25 10 18 0 25 5 25 20 0 17 -7 20 -40 20 l-40 0 0 -75z"/>
<path d="M3247 1812 c-32 -81 -32 -82 -7 -82 11 0 20 5 20 10 0 6 14 10 30 10
17 0 30 -4 30 -10 0 -5 9 -10 21 -10 13 0 19 5 16 13 -2 6 -14 40 -27 75 -31
84 -49 83 -83 -6z m53 -7 c0 -8 -4 -15 -10 -15 -5 0 -10 7 -10 15 0 8 5 15 10
15 6 0 10 -7 10 -15z"/>
<path d="M3370 1821 c0 -65 15 -91 54 -91 38 0 56 30 56 93 0 50 -2 57 -20 57
-18 0 -20 -7 -20 -55 0 -42 -3 -55 -15 -55 -12 0 -15 13 -15 55 0 48 -2 55
-20 55 -18 0 -20 -7 -20 -59z"/>
<path d="M3490 1860 c0 -11 7 -20 15 -20 12 0 15 -13 15 -55 0 -48 2 -55 20
-55 18 0 20 7 20 55 0 42 3 55 15 55 8 0 15 9 15 20 0 17 -7 20 -50 20 -43 0
-50 -3 -50 -20z"/>
<path d="M3600 1865 c0 -9 7 -32 15 -52 8 -19 15 -46 15 -59 0 -17 6 -24 20
-24 16 0 20 7 20 33 1 17 7 43 15 57 21 36 19 60 -5 60 -15 0 -20 -7 -20 -25
0 -14 -4 -25 -9 -25 -5 0 -12 11 -15 25 -7 27 -36 35 -36 10z"/>
<path d="M2742 1853 c2 -10 12 -18 23 -19 11 0 37 -1 58 -2 20 -1 37 -6 37
-12 0 -15 -56 -40 -90 -40 -23 0 -30 -4 -30 -20 0 -11 6 -20 13 -20 31 0 89
23 116 46 23 19 36 23 57 18 19 -5 25 -4 20 5 -4 6 -13 11 -21 11 -7 0 -16 7
-19 16 -4 9 -9 15 -12 12 -2 -3 -30 1 -62 8 -77 18 -94 18 -90 -3z"/>
<path d="M1716 1835 c9 -14 24 -25 33 -25 12 0 10 -5 -8 -19 -25 -19 -22 -41
6 -41 9 0 24 7 34 16 19 17 32 19 114 10 l60 -6 -50 16 -50 16 49 15 c66 19
54 24 -27 12 -55 -9 -72 -8 -90 4 -12 7 -37 17 -55 20 l-32 7 16 -25z m44 -5
c0 -5 -5 -10 -11 -10 -5 0 -7 5 -4 10 3 6 8 10 11 10 2 0 4 -4 4 -10z m45 -30
c3 -5 -1 -10 -9 -10 -8 0 -18 5 -21 10 -3 6 1 10 9 10 8 0 18 -4 21 -10z m-45
-30 c0 -5 -2 -10 -4 -10 -3 0 -8 5 -11 10 -3 6 -1 10 4 10 6 0 11 -4 11 -10z"/>
</g>
</svg>
