<svg width="156" height="170" viewBox="0 0 156 170" fill="none" xmlns="http://www.w3.org/2000/svg">
<rect x="0.5" y="0.5" width="155" height="67" fill="#7F8A6E" stroke="#385526"/>
<path d="M35.2979 9.8418C35.2432 10.9082 34.9424 11.724 34.3955 12.2891C33.8532 12.8542 33.0853 13.1367 32.0918 13.1367C31.0938 13.1367 30.3008 12.7585 29.7129 12.002C29.125 11.2409 28.8311 10.2109 28.8311 8.91211V7.10742C28.8311 5.81315 29.1318 4.79004 29.7334 4.03809C30.3395 3.28613 31.1644 2.91016 32.208 2.91016C33.1696 2.91016 33.9124 3.19954 34.4365 3.77832C34.9652 4.35254 35.2523 5.17513 35.2979 6.24609H34.0332C33.9785 5.4349 33.8076 4.85612 33.5205 4.50977C33.2334 4.16341 32.7959 3.99023 32.208 3.99023C31.529 3.99023 31.0072 4.25684 30.6426 4.79004C30.278 5.31868 30.0957 6.0957 30.0957 7.12109V8.94629C30.0957 9.95345 30.2643 10.7259 30.6016 11.2637C30.9434 11.8014 31.4401 12.0703 32.0918 12.0703C32.7435 12.0703 33.2129 11.9085 33.5 11.585C33.7871 11.2614 33.9648 10.6803 34.0332 9.8418H35.2979ZM41.5049 6.62891H39.4883V13H38.2852V6.62891H36.2959V5.60352H41.5049V6.62891ZM42.2363 8.95996C42.2363 7.88444 42.4961 7.03451 43.0156 6.41016C43.5397 5.78125 44.2301 5.4668 45.0869 5.4668C45.9437 5.4668 46.6318 5.77214 47.1514 6.38281C47.6755 6.99349 47.9443 7.8252 47.958 8.87793V9.65723C47.958 10.7282 47.6982 11.5758 47.1787 12.2002C46.6592 12.8245 45.9665 13.1367 45.1006 13.1367C44.2438 13.1367 43.5557 12.8337 43.0361 12.2275C42.5212 11.6214 42.2546 10.8011 42.2363 9.7666V8.95996ZM43.4463 9.65723C43.4463 10.4183 43.5944 11.0176 43.8906 11.4551C44.1914 11.888 44.5947 12.1045 45.1006 12.1045C46.167 12.1045 46.7161 11.3343 46.748 9.79395V8.95996C46.748 8.20345 46.5977 7.60645 46.2969 7.16895C45.9961 6.72689 45.5928 6.50586 45.0869 6.50586C44.5902 6.50586 44.1914 6.72689 43.8906 7.16895C43.5944 7.60645 43.4463 8.20117 43.4463 8.95312V9.65723ZM53.5156 5.60352H54.7188V13H53.5156V7.60645L50.8359 13H49.626V5.60352H50.8359V11.0039L53.5156 5.60352ZM60.2832 11.3252L62.2656 5.60352H63.7695V13H62.5664V7.90039L60.7002 13H59.873L57.9658 7.77734V13H56.7627V5.60352H58.3213L60.2832 11.3252ZM65.4512 8.95996C65.4512 7.88444 65.7109 7.03451 66.2305 6.41016C66.7546 5.78125 67.445 5.4668 68.3018 5.4668C69.1585 5.4668 69.8467 5.77214 70.3662 6.38281C70.8903 6.99349 71.1592 7.8252 71.1729 8.87793V9.65723C71.1729 10.7282 70.9131 11.5758 70.3936 12.2002C69.874 12.8245 69.1813 13.1367 68.3154 13.1367C67.4587 13.1367 66.7705 12.8337 66.251 12.2275C65.736 11.6214 65.4694 10.8011 65.4512 9.7666V8.95996ZM66.6611 9.65723C66.6611 10.4183 66.8092 11.0176 67.1055 11.4551C67.4062 11.888 67.8096 12.1045 68.3154 12.1045C69.3818 12.1045 69.931 11.3343 69.9629 9.79395V8.95996C69.9629 8.20345 69.8125 7.60645 69.5117 7.16895C69.2109 6.72689 68.8076 6.50586 68.3018 6.50586C67.805 6.50586 67.4062 6.72689 67.1055 7.16895C66.8092 7.60645 66.6611 8.20117 66.6611 8.95312V9.65723ZM75.3018 12.1045C75.7028 12.1045 76.0241 11.9814 76.2656 11.7354C76.5072 11.4847 76.6393 11.1292 76.6621 10.6689H77.8037C77.7764 11.3799 77.5234 11.9701 77.0449 12.4395C76.571 12.9043 75.9899 13.1367 75.3018 13.1367C74.3857 13.1367 73.6862 12.8496 73.2031 12.2754C72.7246 11.6966 72.4854 10.8376 72.4854 9.69824V8.88477C72.4854 7.76823 72.7246 6.92057 73.2031 6.3418C73.6816 5.75846 74.3789 5.4668 75.2949 5.4668C76.0514 5.4668 76.6507 5.70605 77.0928 6.18457C77.5394 6.66309 77.7764 7.31706 77.8037 8.14648H76.6621C76.6348 7.59961 76.5026 7.18945 76.2656 6.91602C76.0332 6.64258 75.7096 6.50586 75.2949 6.50586C74.7572 6.50586 74.3584 6.68359 74.0986 7.03906C73.8389 7.38997 73.7044 7.96875 73.6953 8.77539V9.71875C73.6953 10.5892 73.8229 11.2044 74.0781 11.5645C74.3379 11.9245 74.7458 12.1045 75.3018 12.1045ZM83.874 6.62891H81.8574V13H80.6543V6.62891H78.665V5.60352H83.874V6.62891ZM86.458 8.15332H87.9824C88.6888 8.15788 89.2516 8.37435 89.6709 8.80273C90.0902 9.23112 90.2998 9.81445 90.2998 10.5527C90.2998 11.291 90.0879 11.8835 89.6641 12.3301C89.2402 12.7721 88.6797 12.9954 87.9824 13H85.2549V5.60352H86.458V8.15332ZM86.458 9.18555V11.9678H87.9619C88.3174 11.9678 88.5931 11.847 88.7891 11.6055C88.9896 11.3639 89.0898 11.029 89.0898 10.6006C89.0898 10.1813 88.9919 9.8418 88.7959 9.58203C88.5999 9.32227 88.3311 9.1901 87.9893 9.18555H86.458ZM97.0674 9.84863H96.3838V13H95.1738V5.60352H96.3838V8.73438H96.9854L99.002 5.60352H100.444L97.9766 9.12402L100.622 13H99.1045L97.0674 9.84863ZM103.808 10.9902L105.154 5.60352H106.439L104.02 14.0459C103.837 14.6794 103.58 15.1602 103.247 15.4883C102.914 15.821 102.536 15.9873 102.112 15.9873C101.948 15.9873 101.739 15.9508 101.483 15.8779V14.8525L101.75 14.8799C102.101 14.8799 102.374 14.7956 102.57 14.627C102.771 14.4629 102.933 14.1758 103.056 13.7656L103.295 12.9385L101.121 5.60352H102.44L103.808 10.9902ZM112.968 9.65723C112.968 10.8285 112.756 11.7012 112.332 12.2754C111.913 12.8496 111.318 13.1367 110.548 13.1367C109.805 13.1367 109.233 12.8564 108.832 12.2959V15.8438H107.629V5.60352H108.723L108.784 6.42383C109.19 5.78581 109.771 5.4668 110.527 5.4668C111.339 5.4668 111.945 5.74935 112.346 6.31445C112.747 6.87956 112.954 7.72493 112.968 8.85059V9.65723ZM111.765 8.9668C111.765 8.13737 111.637 7.52669 111.382 7.13477C111.127 6.73828 110.716 6.54004 110.151 6.54004C109.573 6.54004 109.133 6.82943 108.832 7.4082V11.2568C109.128 11.8219 109.573 12.1045 110.165 12.1045C110.712 12.1045 111.113 11.9085 111.368 11.5166C111.628 11.1201 111.76 10.5163 111.765 9.70508V8.9668ZM117.097 12.1045C117.498 12.1045 117.819 11.9814 118.061 11.7354C118.302 11.4847 118.434 11.1292 118.457 10.6689H119.599C119.571 11.3799 119.318 11.9701 118.84 12.4395C118.366 12.9043 117.785 13.1367 117.097 13.1367C116.181 13.1367 115.481 12.8496 114.998 12.2754C114.52 11.6966 114.28 10.8376 114.28 9.69824V8.88477C114.28 7.76823 114.52 6.92057 114.998 6.3418C115.477 5.75846 116.174 5.4668 117.09 5.4668C117.846 5.4668 118.446 5.70605 118.888 6.18457C119.334 6.66309 119.571 7.31706 119.599 8.14648H118.457C118.43 7.59961 118.298 7.18945 118.061 6.91602C117.828 6.64258 117.505 6.50586 117.09 6.50586C116.552 6.50586 116.153 6.68359 115.894 7.03906C115.634 7.38997 115.499 7.96875 115.49 8.77539V9.71875C115.49 10.5892 115.618 11.2044 115.873 11.5645C116.133 11.9245 116.541 12.1045 117.097 12.1045ZM124.801 13C124.728 12.8405 124.675 12.5716 124.644 12.1934C124.215 12.8223 123.668 13.1367 123.003 13.1367C122.333 13.1367 121.809 12.9499 121.431 12.5762C121.057 12.1979 120.87 11.667 120.87 10.9834C120.87 10.2314 121.125 9.63444 121.636 9.19238C122.146 8.75033 122.846 8.52474 123.734 8.51562H124.623V7.72949C124.623 7.28743 124.525 6.97298 124.329 6.78613C124.133 6.59928 123.835 6.50586 123.434 6.50586C123.069 6.50586 122.773 6.61523 122.545 6.83398C122.317 7.04818 122.203 7.32161 122.203 7.6543H120.993C120.993 7.27604 121.105 6.91602 121.328 6.57422C121.551 6.22786 121.852 5.95671 122.23 5.76074C122.609 5.56478 123.03 5.4668 123.495 5.4668C124.252 5.4668 124.826 5.65592 125.218 6.03418C125.614 6.40788 125.817 6.95475 125.826 7.6748V11.4072C125.831 11.9769 125.908 12.4714 126.059 12.8906V13H124.801ZM123.188 12.0361C123.484 12.0361 123.766 11.9541 124.035 11.79C124.304 11.626 124.5 11.4209 124.623 11.1748V9.41113H123.939C123.365 9.42025 122.912 9.55013 122.579 9.80078C122.246 10.0469 122.08 10.3932 122.08 10.8398C122.08 11.2591 122.164 11.5645 122.333 11.7559C122.502 11.9427 122.786 12.0361 123.188 12.0361ZM38.7568 18.3701L39.4404 18.8623C39.0804 19.4548 38.8936 20.0745 38.8799 20.7217V21.665H37.6836V20.8721C37.6836 20.4118 37.7839 19.9515 37.9844 19.4912C38.1849 19.0264 38.4424 18.6527 38.7568 18.3701ZM40.7051 18.3701L41.3887 18.8623C41.0286 19.4548 40.8418 20.0745 40.8281 20.7217V21.665H39.6318V20.8721C39.6318 20.4118 39.7321 19.9515 39.9326 19.4912C40.1331 19.0264 40.3906 18.6527 40.7051 18.3701ZM42.6875 29V19.0469H45.5244C46.4313 19.0469 47.1126 19.2679 47.5684 19.71C48.0286 20.152 48.2588 20.8151 48.2588 21.6992C48.2588 22.1641 48.1426 22.5742 47.9102 22.9297C47.6777 23.2852 47.3633 23.5609 46.9668 23.7568C47.4225 23.8936 47.7826 24.1738 48.0469 24.5977C48.3158 25.0215 48.4502 25.5319 48.4502 26.1289C48.4502 27.0221 48.2041 27.724 47.7119 28.2344C47.2243 28.7448 46.527 29 45.6201 29H42.6875ZM43.9385 24.3447V27.9268H45.6475C46.1214 27.9268 46.4974 27.7718 46.7754 27.4619C47.0534 27.1475 47.1924 26.7077 47.1924 26.1426C47.1924 24.944 46.6865 24.3447 45.6748 24.3447H43.9385ZM43.9385 23.292H45.5449C45.9779 23.292 46.3265 23.1462 46.5908 22.8545C46.8597 22.5628 46.9941 22.1755 46.9941 21.6924C46.9941 21.1455 46.8734 20.749 46.6318 20.5029C46.3903 20.2523 46.0212 20.127 45.5244 20.127H43.9385V23.292ZM53.2148 22.7383C53.0462 22.7064 52.8639 22.6904 52.668 22.6904C52.0482 22.6904 51.6152 23.0299 51.3691 23.709V29H50.1592V21.6035H51.335L51.3555 22.3555C51.679 21.763 52.137 21.4668 52.7295 21.4668C52.9209 21.4668 53.0804 21.4987 53.208 21.5625L53.2148 22.7383ZM54.0352 24.96C54.0352 23.8844 54.2949 23.0345 54.8145 22.4102C55.3385 21.7812 56.029 21.4668 56.8857 21.4668C57.7425 21.4668 58.4307 21.7721 58.9502 22.3828C59.4743 22.9935 59.7432 23.8252 59.7568 24.8779V25.6572C59.7568 26.7282 59.4971 27.5758 58.9775 28.2002C58.458 28.8245 57.7653 29.1367 56.8994 29.1367C56.0426 29.1367 55.3545 28.8337 54.835 28.2275C54.32 27.6214 54.0534 26.8011 54.0352 25.7666V24.96ZM55.2451 25.6572C55.2451 26.4183 55.3932 27.0176 55.6895 27.4551C55.9902 27.888 56.3936 28.1045 56.8994 28.1045C57.9658 28.1045 58.515 27.3343 58.5469 25.7939V24.96C58.5469 24.2035 58.3965 23.6064 58.0957 23.1689C57.7949 22.7269 57.3916 22.5059 56.8857 22.5059C56.389 22.5059 55.9902 22.7269 55.6895 23.1689C55.3932 23.6064 55.2451 24.2012 55.2451 24.9531V25.6572ZM66.832 26.874L67.9531 21.6035H69.1494L67.3379 29H66.374L64.9316 23.709L63.5234 29H62.5527L60.7549 21.6035H61.9443L63.0928 26.7441L64.4668 21.6035H65.4238L66.832 26.874ZM75.418 19.0469L78.0156 27.168L80.6133 19.0469H82.2266V29H80.9756V25.124L81.0918 21.2412L78.4873 29H77.5303L74.9395 21.2686L75.0557 25.124V29H73.8047V19.0469H75.418ZM88.0234 29C87.9505 28.8405 87.8981 28.5716 87.8662 28.1934C87.4378 28.8223 86.891 29.1367 86.2256 29.1367C85.5557 29.1367 85.0316 28.9499 84.6533 28.5762C84.2796 28.1979 84.0928 27.667 84.0928 26.9834C84.0928 26.2314 84.348 25.6344 84.8584 25.1924C85.3688 24.7503 86.0684 24.5247 86.957 24.5156H87.8457V23.7295C87.8457 23.2874 87.7477 22.973 87.5518 22.7861C87.3558 22.5993 87.0573 22.5059 86.6562 22.5059C86.2917 22.5059 85.9954 22.6152 85.7676 22.834C85.5397 23.0482 85.4258 23.3216 85.4258 23.6543H84.2158C84.2158 23.276 84.3275 22.916 84.5508 22.5742C84.7741 22.2279 85.0749 21.9567 85.4531 21.7607C85.8314 21.5648 86.2529 21.4668 86.7178 21.4668C87.4743 21.4668 88.0485 21.6559 88.4404 22.0342C88.8369 22.4079 89.0397 22.9548 89.0488 23.6748V27.4072C89.0534 27.9769 89.1309 28.4714 89.2812 28.8906V29H88.0234ZM86.4102 28.0361C86.7064 28.0361 86.9889 27.9541 87.2578 27.79C87.5267 27.626 87.7227 27.4209 87.8457 27.1748V25.4111H87.1621C86.5879 25.4202 86.1344 25.5501 85.8018 25.8008C85.4691 26.0469 85.3027 26.3932 85.3027 26.8398C85.3027 27.2591 85.387 27.5645 85.5557 27.7559C85.7243 27.9427 86.0091 28.0361 86.4102 28.0361ZM94.5244 27.1064C94.5244 26.8467 94.4264 26.6234 94.2305 26.4365C94.0345 26.2497 93.6562 26.0309 93.0957 25.7803C92.444 25.5114 91.9837 25.2812 91.7148 25.0898C91.4505 24.8984 91.2523 24.682 91.1201 24.4404C90.988 24.1943 90.9219 23.9027 90.9219 23.5654C90.9219 22.9639 91.1406 22.4648 91.5781 22.0684C92.0202 21.6673 92.583 21.4668 93.2666 21.4668C93.9867 21.4668 94.5654 21.6764 95.0029 22.0957C95.4404 22.515 95.6592 23.0527 95.6592 23.709H94.4561C94.4561 23.3763 94.3444 23.0938 94.1211 22.8613C93.8978 22.6243 93.613 22.5059 93.2666 22.5059C92.9111 22.5059 92.6309 22.5993 92.4258 22.7861C92.2253 22.9684 92.125 23.2145 92.125 23.5244C92.125 23.7705 92.1979 23.9688 92.3438 24.1191C92.4941 24.2695 92.8519 24.4678 93.417 24.7139C94.3148 25.0648 94.9255 25.4089 95.249 25.7461C95.5726 26.0788 95.7344 26.5026 95.7344 27.0176C95.7344 27.6602 95.5133 28.1751 95.0713 28.5625C94.6292 28.9453 94.0368 29.1367 93.2939 29.1367C92.5238 29.1367 91.8994 28.9157 91.4209 28.4736C90.9424 28.0316 90.7031 27.471 90.7031 26.792H91.9199C91.9336 27.2021 92.0589 27.5234 92.2959 27.7559C92.5329 27.9883 92.8656 28.1045 93.2939 28.1045C93.695 28.1045 94.0003 28.0156 94.21 27.8379C94.4196 27.6556 94.5244 27.4118 94.5244 27.1064ZM98.8994 19.8125V21.6035H100.014V22.5811H98.8994V27.168C98.8994 27.4596 98.9473 27.6807 99.043 27.8311C99.1387 27.9814 99.3027 28.0566 99.5352 28.0566C99.6947 28.0566 99.8564 28.0293 100.021 27.9746L100.007 29C99.7334 29.0911 99.4531 29.1367 99.166 29.1367C98.6875 29.1367 98.3229 28.9658 98.0723 28.624C97.8216 28.2822 97.6963 27.7992 97.6963 27.1748V22.5811H96.5684V21.6035H97.6963V19.8125H98.8994ZM104.102 29.1367C103.181 29.1367 102.475 28.8633 101.982 28.3164C101.49 27.765 101.24 26.9583 101.23 25.8965V25.001C101.23 23.8981 101.47 23.0345 101.948 22.4102C102.431 21.7812 103.104 21.4668 103.965 21.4668C104.831 21.4668 105.478 21.7425 105.906 22.2939C106.335 22.8454 106.553 23.7044 106.562 24.8711V25.6641H102.434V25.835C102.434 26.6279 102.582 27.2044 102.878 27.5645C103.179 27.9245 103.609 28.1045 104.17 28.1045C104.525 28.1045 104.838 28.0384 105.106 27.9062C105.38 27.7695 105.635 27.5553 105.872 27.2637L106.501 28.0293C105.977 28.7676 105.177 29.1367 104.102 29.1367ZM103.965 22.5059C103.464 22.5059 103.092 22.679 102.851 23.0254C102.609 23.3672 102.472 23.9004 102.44 24.625H105.353V24.4609C105.321 23.7591 105.193 23.2578 104.97 22.957C104.751 22.6562 104.416 22.5059 103.965 22.5059ZM111.074 22.7383C110.906 22.7064 110.723 22.6904 110.527 22.6904C109.908 22.6904 109.475 23.0299 109.229 23.709V29H108.019V21.6035H109.194L109.215 22.3555C109.538 21.763 109.996 21.4668 110.589 21.4668C110.78 21.4668 110.94 21.4987 111.067 21.5625L111.074 22.7383ZM118.067 28.1045C118.468 28.1045 118.79 27.9814 119.031 27.7354C119.273 27.4847 119.405 27.1292 119.428 26.6689H120.569C120.542 27.3799 120.289 27.9701 119.811 28.4395C119.337 28.9043 118.756 29.1367 118.067 29.1367C117.151 29.1367 116.452 28.8496 115.969 28.2754C115.49 27.6966 115.251 26.8376 115.251 25.6982V24.8848C115.251 23.7682 115.49 22.9206 115.969 22.3418C116.447 21.7585 117.145 21.4668 118.061 21.4668C118.817 21.4668 119.416 21.7061 119.858 22.1846C120.305 22.6631 120.542 23.3171 120.569 24.1465H119.428C119.4 23.5996 119.268 23.1895 119.031 22.916C118.799 22.6426 118.475 22.5059 118.061 22.5059C117.523 22.5059 117.124 22.6836 116.864 23.0391C116.604 23.39 116.47 23.9688 116.461 24.7754V25.7188C116.461 26.5892 116.589 27.2044 116.844 27.5645C117.104 27.9245 117.511 28.1045 118.067 28.1045ZM30.793 43.9678L31.1553 43.4482C31.5472 42.8467 31.7728 41.9603 31.832 40.7891L31.9346 37.6035H36.0635V43.9678H36.9248V47.1738H35.7148V45H31.5107V47.1738H30.2939L30.3008 43.9678H30.793ZM32.1396 43.9678H34.8604V38.7725H33.1104L33.0488 40.5771C32.985 42.0173 32.682 43.1475 32.1396 43.9678ZM38.0596 40.96C38.0596 39.8844 38.3193 39.0345 38.8389 38.4102C39.363 37.7812 40.0534 37.4668 40.9102 37.4668C41.7669 37.4668 42.4551 37.7721 42.9746 38.3828C43.4987 38.9935 43.7676 39.8252 43.7812 40.8779V41.6572C43.7812 42.7282 43.5215 43.5758 43.002 44.2002C42.4824 44.8245 41.7897 45.1367 40.9238 45.1367C40.0671 45.1367 39.3789 44.8337 38.8594 44.2275C38.3444 43.6214 38.0778 42.8011 38.0596 41.7666V40.96ZM39.2695 41.6572C39.2695 42.4183 39.4176 43.0176 39.7139 43.4551C40.0146 43.888 40.418 44.1045 40.9238 44.1045C41.9902 44.1045 42.5394 43.3343 42.5713 41.7939V40.96C42.5713 40.2035 42.4209 39.6064 42.1201 39.1689C41.8193 38.7269 41.416 38.5059 40.9102 38.5059C40.4134 38.5059 40.0146 38.7269 39.7139 39.1689C39.4176 39.6064 39.2695 40.2012 39.2695 40.9531V41.6572ZM50.4463 37.6035V45H49.2363V38.6494H47.2881L47.1719 41.1582C47.1081 42.5482 46.9212 43.5348 46.6113 44.1182C46.3014 44.6969 45.8047 44.9909 45.1211 45H44.7178V43.8857L45.0254 43.8584C45.3626 43.8128 45.5996 43.5872 45.7363 43.1816C45.8776 42.7715 45.971 41.9671 46.0166 40.7686L46.1328 37.6035H50.4463ZM56.4346 38.6494H53.6797V45H52.4629V37.6035H56.4346V38.6494ZM57.1729 40.96C57.1729 39.8844 57.4326 39.0345 57.9521 38.4102C58.4762 37.7812 59.1667 37.4668 60.0234 37.4668C60.8802 37.4668 61.5684 37.7721 62.0879 38.3828C62.612 38.9935 62.8809 39.8252 62.8945 40.8779V41.6572C62.8945 42.7282 62.6348 43.5758 62.1152 44.2002C61.5957 44.8245 60.903 45.1367 60.0371 45.1367C59.1803 45.1367 58.4922 44.8337 57.9727 44.2275C57.4577 43.6214 57.1911 42.8011 57.1729 41.7666V40.96ZM58.3828 41.6572C58.3828 42.4183 58.5309 43.0176 58.8271 43.4551C59.1279 43.888 59.5312 44.1045 60.0371 44.1045C61.1035 44.1045 61.6527 43.3343 61.6846 41.7939V40.96C61.6846 40.2035 61.5342 39.6064 61.2334 39.1689C60.9326 38.7269 60.5293 38.5059 60.0234 38.5059C59.5267 38.5059 59.1279 38.7269 58.8271 39.1689C58.5309 39.6064 58.3828 40.2012 58.3828 40.9531V41.6572ZM64.5625 45V37.6035H67.0439C67.8916 37.6035 68.5387 37.7767 68.9854 38.123C69.432 38.4694 69.6553 38.973 69.6553 39.6338C69.6553 39.9756 69.5664 40.2832 69.3887 40.5566C69.2109 40.8301 68.9512 41.0397 68.6094 41.1855C68.9876 41.2858 69.2907 41.4886 69.5186 41.7939C69.751 42.0993 69.8672 42.4684 69.8672 42.9014C69.8672 43.585 69.653 44.1068 69.2246 44.4668C68.8008 44.8223 68.1992 45 67.4199 45H64.5625ZM65.7656 41.7529V43.9814H67.4336C68.2493 43.9814 68.6572 43.6077 68.6572 42.8604C68.6572 42.1221 68.2448 41.7529 67.4199 41.7529H65.7656ZM65.7656 40.7412H67.0303C67.9736 40.7412 68.4453 40.3949 68.4453 39.7021C68.4453 39.0049 68.001 38.6471 67.1123 38.6289H65.7656V40.7412ZM76.8535 41.6572C76.8535 42.8285 76.6416 43.7012 76.2178 44.2754C75.7985 44.8496 75.2038 45.1367 74.4336 45.1367C73.6908 45.1367 73.1188 44.8564 72.7178 44.2959V47.8438H71.5146V37.6035H72.6084L72.6699 38.4238C73.0755 37.7858 73.6566 37.4668 74.4131 37.4668C75.2243 37.4668 75.8304 37.7493 76.2314 38.3145C76.6325 38.8796 76.8398 39.7249 76.8535 40.8506V41.6572ZM75.6504 40.9668C75.6504 40.1374 75.5228 39.5267 75.2676 39.1348C75.0124 38.7383 74.6022 38.54 74.0371 38.54C73.4583 38.54 73.0186 38.8294 72.7178 39.4082V43.2568C73.014 43.8219 73.4583 44.1045 74.0508 44.1045C74.5977 44.1045 74.9987 43.9085 75.2539 43.5166C75.5137 43.1201 75.6458 42.5163 75.6504 41.7051V40.9668ZM81.0576 45.1367C80.137 45.1367 79.4307 44.8633 78.9385 44.3164C78.4463 43.765 78.1956 42.9583 78.1865 41.8965V41.001C78.1865 39.8981 78.4258 39.0345 78.9043 38.4102C79.3874 37.7812 80.0596 37.4668 80.9209 37.4668C81.7868 37.4668 82.4339 37.7425 82.8623 38.2939C83.2907 38.8454 83.5094 39.7044 83.5186 40.8711V41.6641H79.3896V41.835C79.3896 42.6279 79.5378 43.2044 79.834 43.5645C80.1348 43.9245 80.5654 44.1045 81.126 44.1045C81.4814 44.1045 81.7936 44.0384 82.0625 43.9062C82.3359 43.7695 82.5911 43.5553 82.8281 43.2637L83.457 44.0293C82.9329 44.7676 82.1331 45.1367 81.0576 45.1367ZM80.9209 38.5059C80.4196 38.5059 80.0482 38.679 79.8066 39.0254C79.5651 39.3672 79.4284 39.9004 79.3965 40.625H82.3086V40.4609C82.2767 39.7591 82.1491 39.2578 81.9258 38.957C81.707 38.6562 81.3721 38.5059 80.9209 38.5059ZM88.6045 43.3252L90.5869 37.6035H92.0908V45H90.8877V39.9004L89.0215 45H88.1943L86.2871 39.7773V45H85.084V37.6035H86.6426L88.6045 43.3252ZM96.6709 45.1367C95.7503 45.1367 95.0439 44.8633 94.5518 44.3164C94.0596 43.765 93.8089 42.9583 93.7998 41.8965V41.001C93.7998 39.8981 94.0391 39.0345 94.5176 38.4102C95.0007 37.7812 95.6729 37.4668 96.5342 37.4668C97.4001 37.4668 98.0472 37.7425 98.4756 38.2939C98.904 38.8454 99.1227 39.7044 99.1318 40.8711V41.6641H95.0029V41.835C95.0029 42.6279 95.151 43.2044 95.4473 43.5645C95.748 43.9245 96.1787 44.1045 96.7393 44.1045C97.0947 44.1045 97.4069 44.0384 97.6758 43.9062C97.9492 43.7695 98.2044 43.5553 98.4414 43.2637L99.0703 44.0293C98.5462 44.7676 97.7464 45.1367 96.6709 45.1367ZM96.5342 38.5059C96.0329 38.5059 95.6615 38.679 95.4199 39.0254C95.1784 39.3672 95.0417 39.9004 95.0098 40.625H97.9219V40.4609C97.89 39.7591 97.7624 39.2578 97.5391 38.957C97.3203 38.6562 96.9854 38.5059 96.5342 38.5059ZM105.783 45H104.58V41.8418H101.914V45H100.697V37.6035H101.914V40.8096H104.58V37.6035H105.783V45ZM112.906 45H111.703V41.8418H109.037V45H107.82V37.6035H109.037V40.8096H111.703V37.6035H112.906V45ZM114.581 40.96C114.581 39.8844 114.841 39.0345 115.36 38.4102C115.884 37.7812 116.575 37.4668 117.432 37.4668C118.288 37.4668 118.977 37.7721 119.496 38.3828C120.02 38.9935 120.289 39.8252 120.303 40.8779V41.6572C120.303 42.7282 120.043 43.5758 119.523 44.2002C119.004 44.8245 118.311 45.1367 117.445 45.1367C116.589 45.1367 115.9 44.8337 115.381 44.2275C114.866 43.6214 114.599 42.8011 114.581 41.7666V40.96ZM115.791 41.6572C115.791 42.4183 115.939 43.0176 116.235 43.4551C116.536 43.888 116.939 44.1045 117.445 44.1045C118.512 44.1045 119.061 43.3343 119.093 41.7939V40.96C119.093 40.2035 118.942 39.6064 118.642 39.1689C118.341 38.7269 117.938 38.5059 117.432 38.5059C116.935 38.5059 116.536 38.7269 116.235 39.1689C115.939 39.6064 115.791 40.2012 115.791 40.9531V41.6572ZM125.86 37.6035H127.063V45H125.86V39.6064L123.181 45H121.971V37.6035H123.181V43.0039L125.86 37.6035ZM126.571 34.9102C126.571 35.4616 126.382 35.9059 126.004 36.2432C125.63 36.5758 125.138 36.7422 124.527 36.7422C123.917 36.7422 123.422 36.5736 123.044 36.2363C122.666 35.8991 122.477 35.457 122.477 34.9102H123.509C123.509 35.2292 123.595 35.4798 123.769 35.6621C123.942 35.8398 124.195 35.9287 124.527 35.9287C124.846 35.9287 125.095 35.8398 125.272 35.6621C125.455 35.4844 125.546 35.2337 125.546 34.9102H126.571ZM52.2305 58.9902L53.5771 53.6035H54.8623L52.4424 62.0459C52.2601 62.6794 52.0026 63.1602 51.6699 63.4883C51.3372 63.821 50.959 63.9873 50.5352 63.9873C50.3711 63.9873 50.1615 63.9508 49.9062 63.8779V62.8525L50.1729 62.8799C50.5238 62.8799 50.7972 62.7956 50.9932 62.627C51.1937 62.4629 51.3555 62.1758 51.4785 61.7656L51.7178 60.9385L49.5439 53.6035H50.8633L52.2305 58.9902ZM58.0547 57.8486H57.3711V61H56.1611V53.6035H57.3711V56.7344H57.9727L59.9893 53.6035H61.4316L58.9639 57.124L61.6094 61H60.0918L58.0547 57.8486ZM67.9873 53.6035V61H66.7773V54.6494H64.8291L64.7129 57.1582C64.6491 58.5482 64.4622 59.5348 64.1523 60.1182C63.8424 60.6969 63.3457 60.9909 62.6621 61H62.2588V59.8857L62.5664 59.8584C62.9036 59.8128 63.1406 59.5872 63.2773 59.1816C63.4186 58.7715 63.512 57.9671 63.5576 56.7686L63.6738 53.6035H67.9873ZM73.7158 61C73.6429 60.8405 73.5905 60.5716 73.5586 60.1934C73.1302 60.8223 72.5833 61.1367 71.918 61.1367C71.248 61.1367 70.724 60.9499 70.3457 60.5762C69.972 60.1979 69.7852 59.667 69.7852 58.9834C69.7852 58.2314 70.0404 57.6344 70.5508 57.1924C71.0612 56.7503 71.7607 56.5247 72.6494 56.5156H73.5381V55.7295C73.5381 55.2874 73.4401 54.973 73.2441 54.7861C73.0482 54.5993 72.7497 54.5059 72.3486 54.5059C71.984 54.5059 71.6878 54.6152 71.46 54.834C71.2321 55.0482 71.1182 55.3216 71.1182 55.6543H69.9082C69.9082 55.276 70.0199 54.916 70.2432 54.5742C70.4665 54.2279 70.7673 53.9567 71.1455 53.7607C71.5238 53.5648 71.9453 53.4668 72.4102 53.4668C73.1667 53.4668 73.7409 53.6559 74.1328 54.0342C74.5293 54.4079 74.7321 54.9548 74.7412 55.6748V59.4072C74.7458 59.9769 74.8232 60.4714 74.9736 60.8906V61H73.7158ZM72.1025 60.0361C72.3988 60.0361 72.6813 59.9541 72.9502 59.79C73.2191 59.626 73.415 59.4209 73.5381 59.1748V57.4111H72.8545C72.2803 57.4202 71.8268 57.5501 71.4941 57.8008C71.1615 58.0469 70.9951 58.3932 70.9951 58.8398C70.9951 59.2591 71.0794 59.5645 71.248 59.7559C71.4167 59.9427 71.7015 60.0361 72.1025 60.0361ZM76.6074 59.9678L76.9697 59.4482C77.3617 58.8467 77.5872 57.9603 77.6465 56.7891L77.749 53.6035H81.8779V59.9678H82.7393V63.1738H81.5293V61H77.3252V63.1738H76.1084L76.1152 59.9678H76.6074ZM77.9541 59.9678H80.6748V54.7725H78.9248L78.8633 56.5771C78.7995 58.0173 78.4964 59.1475 77.9541 59.9678ZM86.1367 57.8486H85.4531V61H84.2432V53.6035H85.4531V56.7344H86.0547L88.0713 53.6035H89.5137L87.0459 57.124L89.6914 61H88.1738L86.1367 57.8486ZM90.4502 56.96C90.4502 55.8844 90.71 55.0345 91.2295 54.4102C91.7536 53.7812 92.444 53.4668 93.3008 53.4668C94.1576 53.4668 94.8457 53.7721 95.3652 54.3828C95.8893 54.9935 96.1582 55.8252 96.1719 56.8779V57.6572C96.1719 58.7282 95.9121 59.5758 95.3926 60.2002C94.873 60.8245 94.1803 61.1367 93.3145 61.1367C92.4577 61.1367 91.7695 60.8337 91.25 60.2275C90.735 59.6214 90.4684 58.8011 90.4502 57.7666V56.96ZM91.6602 57.6572C91.6602 58.4183 91.8083 59.0176 92.1045 59.4551C92.4053 59.888 92.8086 60.1045 93.3145 60.1045C94.3809 60.1045 94.93 59.3343 94.9619 57.7939V56.96C94.9619 56.2035 94.8115 55.6064 94.5107 55.1689C94.21 54.7269 93.8066 54.5059 93.3008 54.5059C92.804 54.5059 92.4053 54.7269 92.1045 55.1689C91.8083 55.6064 91.6602 56.2012 91.6602 56.9531V57.6572ZM101.729 53.6035H102.933V61H101.729V55.6064L99.0498 61H97.8398V53.6035H99.0498V59.0039L101.729 53.6035ZM102.44 50.9102C102.44 51.4616 102.251 51.9059 101.873 52.2432C101.499 52.5758 101.007 52.7422 100.396 52.7422C99.7858 52.7422 99.2913 52.5736 98.9131 52.2363C98.5348 51.8991 98.3457 51.457 98.3457 50.9102H99.3779C99.3779 51.2292 99.4645 51.4798 99.6377 51.6621C99.8109 51.8398 100.064 51.9287 100.396 51.9287C100.715 51.9287 100.964 51.8398 101.142 51.6621C101.324 51.4844 101.415 51.2337 101.415 50.9102H102.44ZM105.106 53.8496L104.43 53.3574C104.785 52.7604 104.97 52.1406 104.983 51.498V50.5H106.18V51.4229C106.171 51.8604 106.068 52.3047 105.872 52.7559C105.681 53.2025 105.425 53.5671 105.106 53.8496ZM107.007 53.8496L106.33 53.3574C106.686 52.7604 106.87 52.1406 106.884 51.498V50.5H108.08V51.4229C108.071 51.8604 107.968 52.3047 107.772 52.7559C107.581 53.2025 107.326 53.5671 107.007 53.8496Z" fill="white"/>
<rect x="0.5" y="122.5" width="155" height="47" fill="#7F8A6E" stroke="#385526"/>
<rect x="0.5" y="68.5" width="155" height="53" fill="white" stroke="#385526"/>
<g filter="url(#filter0_d_21:5)">
<rect x="30.75" y="133.75" width="92.5" height="24.5" stroke="white" stroke-width="1.5" shape-rendering="crispEdges"/>
</g>
<g filter="url(#filter1_d_21:5)">
<path d="M43.2568 143.72C43.2568 143.187 43.1042 142.765 42.7988 142.455C42.498 142.145 42.0788 141.99 41.541 141.99C41.0853 141.99 40.7048 142.15 40.3994 142.469C40.0986 142.788 39.9482 143.187 39.9482 143.665H38.6973C38.6973 142.849 38.9684 142.186 39.5107 141.676C40.0531 141.165 40.7298 140.91 41.541 140.91C42.4844 140.91 43.2158 141.161 43.7354 141.662C44.2549 142.163 44.5146 142.856 44.5146 143.74C44.5146 144.201 44.3939 144.62 44.1523 144.998C43.9108 145.376 43.5781 145.675 43.1543 145.894C44.1432 146.29 44.6377 147.067 44.6377 148.225C44.6377 149.127 44.3529 149.838 43.7832 150.357C43.2181 150.877 42.4707 151.137 41.541 151.137C41.14 151.137 40.7526 151.073 40.3789 150.945C40.0098 150.813 39.6862 150.615 39.4082 150.351C38.8522 149.826 38.5742 149.122 38.5742 148.238H39.8252C39.8252 148.758 39.9847 149.193 40.3037 149.544C40.6273 149.895 41.0397 150.07 41.541 150.07C42.1016 150.07 42.5482 149.906 42.8809 149.578C43.2181 149.245 43.3867 148.803 43.3867 148.252C43.3867 147.094 42.833 146.5 41.7256 146.468H40.7002V145.388H41.6367C42.1654 145.388 42.5664 145.244 42.8398 144.957C43.1178 144.67 43.2568 144.257 43.2568 143.72ZM50.9609 148.402H47.5977L46.8252 151H45.54L48.7461 141.047H49.8193L53.0322 151H51.7471L50.9609 148.402ZM47.9258 147.322H50.6396L49.2793 142.797L47.9258 147.322ZM60.8525 151H59.5947V142.127H55.6982V151H54.4473V141.047H60.8525V151ZM68.2695 141.047H69.5205V151H68.2695V143.33L64.3936 151H63.1357V141.047H64.3936V148.717L68.2695 141.047ZM77.9902 147.842C77.9355 148.908 77.6348 149.724 77.0879 150.289C76.5456 150.854 75.7777 151.137 74.7842 151.137C73.7861 151.137 72.9932 150.758 72.4053 150.002C71.8174 149.241 71.5234 148.211 71.5234 146.912V145.107C71.5234 143.813 71.8242 142.79 72.4258 142.038C73.0319 141.286 73.8568 140.91 74.9004 140.91C75.862 140.91 76.6048 141.2 77.1289 141.778C77.6576 142.353 77.9447 143.175 77.9902 144.246H76.7256C76.6709 143.435 76.5 142.856 76.2129 142.51C75.9258 142.163 75.4883 141.99 74.9004 141.99C74.2214 141.99 73.6995 142.257 73.335 142.79C72.9704 143.319 72.7881 144.096 72.7881 145.121V146.946C72.7881 147.953 72.9567 148.726 73.2939 149.264C73.6357 149.801 74.1325 150.07 74.7842 150.07C75.4359 150.07 75.9053 149.909 76.1924 149.585C76.4795 149.261 76.6572 148.68 76.7256 147.842H77.9902ZM84.334 148.402H80.9707L80.1982 151H78.9131L82.1191 141.047H83.1924L86.4053 151H85.1201L84.334 148.402ZM81.2988 147.322H84.0127L82.6523 142.797L81.2988 147.322ZM92.6875 142.127H90.0693V151H88.8184V142.127H86.207V141.047H92.6875V142.127ZM95.4834 145.107H97.4932C98.3864 145.112 99.0859 145.374 99.5918 145.894C100.098 146.409 100.351 147.119 100.351 148.026C100.351 148.938 100.093 149.662 99.5781 150.2C99.0677 150.733 98.359 151 97.4521 151H94.2324V141.047H95.4834V145.107ZM95.4834 146.188V149.927H97.4795C97.9899 149.927 98.3864 149.751 98.6689 149.4C98.9515 149.049 99.0928 148.587 99.0928 148.013C99.0928 147.448 98.9515 147.003 98.6689 146.68C98.391 146.352 97.9967 146.188 97.4863 146.188H95.4834ZM108.232 147.842C108.178 148.908 107.877 149.724 107.33 150.289C106.788 150.854 106.02 151.137 105.026 151.137C104.028 151.137 103.235 150.758 102.647 150.002C102.06 149.241 101.766 148.211 101.766 146.912V145.107C101.766 143.813 102.066 142.79 102.668 142.038C103.274 141.286 104.099 140.91 105.143 140.91C106.104 140.91 106.847 141.2 107.371 141.778C107.9 142.353 108.187 143.175 108.232 144.246H106.968C106.913 143.435 106.742 142.856 106.455 142.51C106.168 142.163 105.73 141.99 105.143 141.99C104.464 141.99 103.942 142.257 103.577 142.79C103.213 143.319 103.03 144.096 103.03 145.121V146.946C103.03 147.953 103.199 148.726 103.536 149.264C103.878 149.801 104.375 150.07 105.026 150.07C105.678 150.07 106.147 149.909 106.435 149.585C106.722 149.261 106.899 148.68 106.968 147.842H108.232ZM114.275 151V147.124H112.553L110.837 151H109.504L111.452 146.741C110.368 146.235 109.825 145.338 109.825 144.048C109.825 143.114 110.085 142.382 110.604 141.854C111.129 141.32 111.86 141.051 112.799 141.047H115.533V151H114.275ZM111.083 144.048C111.083 144.649 111.233 145.132 111.534 145.497C111.835 145.857 112.257 146.042 112.799 146.051H114.275V142.127H112.812C112.247 142.127 111.817 142.298 111.521 142.64C111.229 142.981 111.083 143.451 111.083 144.048Z" fill="white"/>
</g>
<path d="M61.8281 103H59.7422V88.5508L56.1562 90.1562V88.1875L61.5 85.8555H61.8281V103ZM68.3555 94.4453L69.0938 85.9375H76.5117V87.9414H70.8398L70.4414 92.5938C71.1445 92.1016 71.9023 91.8555 72.7148 91.8555C74.043 91.8555 75.0859 92.3711 75.8438 93.4023C76.6016 94.4336 76.9805 95.8203 76.9805 97.5625C76.9805 99.3281 76.5664 100.715 75.7383 101.723C74.918 102.73 73.7891 103.234 72.3516 103.234C71.0703 103.234 70.0273 102.816 69.2227 101.98C68.418 101.145 67.957 99.9883 67.8398 98.5117H69.7852C69.9023 99.4883 70.1797 100.227 70.6172 100.727C71.0625 101.219 71.6406 101.465 72.3516 101.465C73.1562 101.465 73.7852 101.117 74.2383 100.422C74.6914 99.7188 74.918 98.7734 74.918 97.5859C74.918 96.4688 74.6719 95.5586 74.1797 94.8555C73.6953 94.1523 73.0391 93.8008 72.2109 93.8008C71.5234 93.8008 70.9727 93.9805 70.5586 94.3398L70.0078 94.8906L68.3555 94.4453ZM88.4883 95.7227C88.4883 98.2383 88.1211 100.121 87.3867 101.371C86.6523 102.613 85.5 103.234 83.9297 103.234C82.4062 103.234 81.2695 102.637 80.5195 101.441C79.7695 100.246 79.3789 98.4492 79.3477 96.0508V93.1211C79.3477 90.6289 79.7148 88.7695 80.4492 87.543C81.1914 86.3164 82.3438 85.7031 83.9062 85.7031C85.4453 85.7031 86.582 86.2852 87.3164 87.4492C88.0586 88.6133 88.4492 90.375 88.4883 92.7344V95.7227ZM86.4141 92.7578C86.4141 90.9531 86.2148 89.625 85.8164 88.7734C85.418 87.9141 84.7812 87.4844 83.9062 87.4844C83.0547 87.4844 82.4297 87.9062 82.0312 88.75C81.6328 89.5859 81.4258 90.8516 81.4102 92.5469V96.0625C81.4102 97.8594 81.6172 99.2109 82.0312 100.117C82.4453 101.016 83.0781 101.465 83.9297 101.465C84.7734 101.465 85.3945 101.039 85.793 100.188C86.1914 99.3359 86.3984 98.0352 86.4141 96.2852V92.7578ZM98.3438 98.6055C98.3438 97.8945 98.1484 97.2969 97.7578 96.8125C97.3672 96.3203 96.6953 95.8672 95.7422 95.4531C94.3438 94.9453 93.3242 94.2852 92.6836 93.4727C92.043 92.6523 91.7227 91.6133 91.7227 90.3555C91.7227 89.0742 92.0312 88.0312 92.6484 87.2266C93.2734 86.4141 94.1211 85.9219 95.1914 85.75V83.1719H96.8438V85.7617C97.9375 85.957 98.7812 86.5156 99.375 87.4375C99.9766 88.3516 100.277 89.6016 100.277 91.1875H98.2266C98.2266 90.1016 98.0273 89.2305 97.6289 88.5742C97.2305 87.918 96.6836 87.5898 95.9883 87.5898C95.293 87.5898 94.75 87.8281 94.3594 88.3047C93.9766 88.7812 93.7852 89.4531 93.7852 90.3203C93.7852 91.1094 93.9922 91.7422 94.4062 92.2188C94.8281 92.6875 95.5117 93.1211 96.457 93.5195C97.8711 94.0508 98.8828 94.7148 99.4922 95.5117C100.109 96.3008 100.418 97.3242 100.418 98.582C100.418 99.8633 100.09 100.91 99.4336 101.723C98.7773 102.535 97.8359 103.023 96.6094 103.188V105.438H94.9805V103.188C93.7461 103.008 92.8008 102.469 92.1445 101.57C91.4883 100.672 91.1602 99.4727 91.1602 97.9727H93.2227C93.2227 99.0586 93.4414 99.8945 93.8789 100.48C94.3164 101.066 94.9336 101.359 95.7305 101.359C96.543 101.359 97.1797 101.117 97.6406 100.633C98.1094 100.141 98.3438 99.4648 98.3438 98.6055Z" fill="black"/>
<defs>
<filter id="filter0_d_21:5" x="28" y="133" width="102" height="35" filterUnits="userSpaceOnUse" color-interpolation-filters="sRGB">
<feFlood flood-opacity="0" result="BackgroundImageFix"/>
<feColorMatrix in="SourceAlpha" type="matrix" values="0 0 0 0 0 0 0 0 0 0 0 0 0 0 0 0 0 0 127 0" result="hardAlpha"/>
<feOffset dx="2" dy="5"/>
<feGaussianBlur stdDeviation="2"/>
<feComposite in2="hardAlpha" operator="out"/>
<feColorMatrix type="matrix" values="0 0 0 0 0 0 0 0 0 0 0 0 0 0 0 0 0 0 0.25 0"/>
<feBlend mode="normal" in2="BackgroundImageFix" result="effect1_dropShadow_21:5"/>
<feBlend mode="normal" in="SourceGraphic" in2="effect1_dropShadow_21:5" result="shape"/>
</filter>
<filter id="filter1_d_21:5" x="36.5742" y="140.91" width="84.959" height="18.2266" filterUnits="userSpaceOnUse" color-interpolation-filters="sRGB">
<feFlood flood-opacity="0" result="BackgroundImageFix"/>
<feColorMatrix in="SourceAlpha" type="matrix" values="0 0 0 0 0 0 0 0 0 0 0 0 0 0 0 0 0 0 127 0" result="hardAlpha"/>
<feOffset dx="2" dy="4"/>
<feGaussianBlur stdDeviation="2"/>
<feComposite in2="hardAlpha" operator="out"/>
<feColorMatrix type="matrix" values="0 0 0 0 0 0 0 0 0 0 0 0 0 0 0 0 0 0 0.25 0"/>
<feBlend mode="normal" in2="BackgroundImageFix" result="effect1_dropShadow_21:5"/>
<feBlend mode="normal" in="SourceGraphic" in2="effect1_dropShadow_21:5" result="shape"/>
</filter>
</defs>
</svg>
