<svg width="15" height="16" viewBox="0 0 15 16" fill="none" xmlns="http://www.w3.org/2000/svg">
<path d="M7.58201 15.8501C3.52732 15.8688 0.193335 12.2688 0.290015 7.87196C0.380835 3.68446 3.63279 0.22508 7.67576 0.271955C11.6806 0.31883 14.9941 3.87508 14.8857 8.27821C14.7832 12.447 11.5576 15.872 7.58201 15.8501ZM1.17771 8.07196C1.20994 11.9876 4.1865 15.0032 7.70212 14.9376C11.1064 14.872 13.9922 11.9126 13.9922 8.06258C13.9922 4.14696 10.9922 1.11883 7.46482 1.19071C4.06052 1.25633 1.20115 4.22508 1.17771 8.07196Z" fill="white"/>
<path d="M6.0586 13.5437C6.0586 11.7031 6.0586 9.87813 6.0586 8.03438C5.67774 8.03438 5.30859 8.03438 4.93066 8.03438C4.93066 7.40938 4.93066 6.80312 4.93066 6.17812C4.98047 6.175 5.03027 6.16875 5.08301 6.16875C5.35547 6.16875 5.63086 6.1625 5.90332 6.17188C6.02344 6.175 6.06446 6.14062 6.06153 6.00938C6.05567 5.53438 6.05567 5.0625 6.0586 4.5875C6.06153 4.05313 6.20215 3.56875 6.55957 3.18125C6.90528 2.80625 7.34766 2.60313 7.82813 2.57188C8.60157 2.525 9.37794 2.53125 10.1543 2.51562C10.1631 2.51562 10.1719 2.525 10.1895 2.53437C10.1895 3.1625 10.1895 3.79375 10.1895 4.44063C10.1338 4.44375 10.0811 4.44688 10.0313 4.44688C9.6797 4.44688 9.32814 4.44688 8.97657 4.44688C8.62208 4.45 8.41407 4.675 8.41407 5.04688C8.41407 5.4 8.41407 5.75625 8.417 6.10938C8.417 6.11875 8.42286 6.12812 8.43165 6.1625C9.01173 6.1625 9.59767 6.1625 10.2129 6.1625C10.1367 6.79688 10.0664 7.40312 9.99025 8.03125C9.45997 8.03125 8.94142 8.03125 8.40821 8.03125C8.40821 9.88125 8.40821 11.7125 8.40821 13.55C7.62012 13.5437 6.85254 13.5437 6.0586 13.5437Z" fill="white"/>
</svg>
