<svg width="16" height="17" viewBox="0 0 16 17" fill="none" xmlns="http://www.w3.org/2000/svg">
<g clip-path="url(#clip0_60:69)">
<path d="M15.9922 8.07078C15.9922 9.19585 15.9696 10.3242 15.9986 11.4492C16.047 13.4407 14.799 14.9796 13.2091 15.665C12.5706 15.9398 11.8998 16.0853 11.2065 16.0853C9.03612 16.0885 6.86255 16.1176 4.6922 16.0756C3.05719 16.0432 1.71241 15.3579 0.748173 14.0065C0.241866 13.2952 0 12.487 0 11.6109C0 9.29284 0 6.97804 0 4.66001C0 2.76873 0.919091 1.44645 2.55088 0.586488C3.26036 0.214699 4.0311 0.0562837 4.8341 0.0530508C6.93995 0.0530508 9.04902 0.0401189 11.1549 0.0595167C12.7899 0.0724485 14.154 0.699642 15.1602 2.01869C15.7213 2.7558 15.9922 3.60284 15.9922 4.53393C15.9922 5.71072 15.9922 6.89075 15.9922 8.07078ZM1.18998 8.07078C1.18998 9.25728 1.18998 10.4405 1.18998 11.627C1.18998 12.1572 1.31253 12.6551 1.58664 13.1045C2.30579 14.2845 3.39258 14.86 4.74058 14.8826C6.90447 14.9149 9.07159 14.8955 11.2387 14.8891C11.7708 14.8891 12.2868 14.7792 12.7673 14.5496C14.0766 13.9224 14.8087 12.9234 14.8022 11.4234C14.7893 9.12796 14.799 6.83256 14.799 4.53716C14.799 3.88734 14.6152 3.29247 14.2314 2.76873C13.4897 1.76328 12.4642 1.26864 11.2387 1.25571C9.07804 1.22985 6.91737 1.24601 4.7567 1.24924C4.29554 1.24924 3.85051 1.343 3.41838 1.50465C2.23162 1.94756 1.12871 3.0694 1.18031 4.72144C1.21901 5.84004 1.18998 6.95541 1.18998 8.07078Z" fill="white"/>
<path d="M8.05001 11.4912C6.03438 11.4912 4.40938 9.88497 4.40625 7.88497C4.40313 5.91622 6.04063 4.30372 8.04376 4.30372C10.0531 4.30059 11.6844 5.90997 11.6875 7.89434C11.6875 9.87559 10.0594 11.4881 8.05001 11.4912ZM8.05001 10.335C9.42189 10.335 10.5344 9.23809 10.5313 7.88809C10.5281 6.55059 9.41564 5.45684 8.05001 5.45684C6.67813 5.45684 5.55938 6.54747 5.55938 7.89434C5.56251 9.24434 6.67813 10.3381 8.05001 10.335Z" fill="white"/>
<path d="M12.1094 3.20996C12.5313 3.20996 12.8751 3.56934 12.8751 4.00996C12.8719 4.45058 12.5251 4.80683 12.1032 4.80371C11.6876 4.80058 11.3469 4.44433 11.3469 4.01308C11.3438 3.57246 11.6876 3.20996 12.1094 3.20996Z" fill="white"/>
</g>
<defs>
<clipPath id="clip0_60:69">
<rect width="16" height="16" fill="white" transform="translate(0 0.147461)"/>
</clipPath>
</defs>
</svg>
