<svg width="156" height="153" viewBox="0 0 156 153" fill="none" xmlns="http://www.w3.org/2000/svg">
<rect x="0.5" y="0.903809" width="155" height="49" fill="#7F8A6E" stroke="#385526"/>
<path d="M34.2979 9.8418C34.2432 10.9082 33.9424 11.724 33.3955 12.2891C32.8532 12.8542 32.0853 13.1367 31.0918 13.1367C30.0938 13.1367 29.3008 12.7585 28.7129 12.002C28.125 11.2409 27.8311 10.2109 27.8311 8.91211V7.10742C27.8311 5.81315 28.1318 4.79004 28.7334 4.03809C29.3395 3.28613 30.1644 2.91016 31.208 2.91016C32.1696 2.91016 32.9124 3.19954 33.4365 3.77832C33.9652 4.35254 34.2523 5.17513 34.2979 6.24609H33.0332C32.9785 5.4349 32.8076 4.85612 32.5205 4.50977C32.2334 4.16341 31.7959 3.99023 31.208 3.99023C30.529 3.99023 30.0072 4.25684 29.6426 4.79004C29.278 5.31868 29.0957 6.0957 29.0957 7.12109V8.94629C29.0957 9.95345 29.2643 10.7259 29.6016 11.2637C29.9434 11.8014 30.4401 12.0703 31.0918 12.0703C31.7435 12.0703 32.2129 11.9085 32.5 11.585C32.7871 11.2614 32.9648 10.6803 33.0332 9.8418H34.2979ZM40.5049 6.62891H38.4883V13H37.2852V6.62891H35.2959V5.60352H40.5049V6.62891ZM41.2363 8.95996C41.2363 7.88444 41.4961 7.03451 42.0156 6.41016C42.5397 5.78125 43.2301 5.4668 44.0869 5.4668C44.9437 5.4668 45.6318 5.77214 46.1514 6.38281C46.6755 6.99349 46.9443 7.8252 46.958 8.87793V9.65723C46.958 10.7282 46.6982 11.5758 46.1787 12.2002C45.6592 12.8245 44.9665 13.1367 44.1006 13.1367C43.2438 13.1367 42.5557 12.8337 42.0361 12.2275C41.5212 11.6214 41.2546 10.8011 41.2363 9.7666V8.95996ZM42.4463 9.65723C42.4463 10.4183 42.5944 11.0176 42.8906 11.4551C43.1914 11.888 43.5947 12.1045 44.1006 12.1045C45.167 12.1045 45.7161 11.3343 45.748 9.79395V8.95996C45.748 8.20345 45.5977 7.60645 45.2969 7.16895C44.9961 6.72689 44.5928 6.50586 44.0869 6.50586C43.5902 6.50586 43.1914 6.72689 42.8906 7.16895C42.5944 7.60645 42.4463 8.20117 42.4463 8.95312V9.65723ZM52.5156 5.60352H53.7188V13H52.5156V7.60645L49.8359 13H48.626V5.60352H49.8359V11.0039L52.5156 5.60352ZM59.2832 11.3252L61.2656 5.60352H62.7695V13H61.5664V7.90039L59.7002 13H58.873L56.9658 7.77734V13H55.7627V5.60352H57.3213L59.2832 11.3252ZM64.4512 8.95996C64.4512 7.88444 64.7109 7.03451 65.2305 6.41016C65.7546 5.78125 66.445 5.4668 67.3018 5.4668C68.1585 5.4668 68.8467 5.77214 69.3662 6.38281C69.8903 6.99349 70.1592 7.8252 70.1729 8.87793V9.65723C70.1729 10.7282 69.9131 11.5758 69.3936 12.2002C68.874 12.8245 68.1813 13.1367 67.3154 13.1367C66.4587 13.1367 65.7705 12.8337 65.251 12.2275C64.736 11.6214 64.4694 10.8011 64.4512 9.7666V8.95996ZM65.6611 9.65723C65.6611 10.4183 65.8092 11.0176 66.1055 11.4551C66.4062 11.888 66.8096 12.1045 67.3154 12.1045C68.3818 12.1045 68.931 11.3343 68.9629 9.79395V8.95996C68.9629 8.20345 68.8125 7.60645 68.5117 7.16895C68.2109 6.72689 67.8076 6.50586 67.3018 6.50586C66.805 6.50586 66.4062 6.72689 66.1055 7.16895C65.8092 7.60645 65.6611 8.20117 65.6611 8.95312V9.65723ZM74.3018 12.1045C74.7028 12.1045 75.0241 11.9814 75.2656 11.7354C75.5072 11.4847 75.6393 11.1292 75.6621 10.6689H76.8037C76.7764 11.3799 76.5234 11.9701 76.0449 12.4395C75.571 12.9043 74.9899 13.1367 74.3018 13.1367C73.3857 13.1367 72.6862 12.8496 72.2031 12.2754C71.7246 11.6966 71.4854 10.8376 71.4854 9.69824V8.88477C71.4854 7.76823 71.7246 6.92057 72.2031 6.3418C72.6816 5.75846 73.3789 5.4668 74.2949 5.4668C75.0514 5.4668 75.6507 5.70605 76.0928 6.18457C76.5394 6.66309 76.7764 7.31706 76.8037 8.14648H75.6621C75.6348 7.59961 75.5026 7.18945 75.2656 6.91602C75.0332 6.64258 74.7096 6.50586 74.2949 6.50586C73.7572 6.50586 73.3584 6.68359 73.0986 7.03906C72.8389 7.38997 72.7044 7.96875 72.6953 8.77539V9.71875C72.6953 10.5892 72.8229 11.2044 73.0781 11.5645C73.3379 11.9245 73.7458 12.1045 74.3018 12.1045ZM82.874 6.62891H80.8574V13H79.6543V6.62891H77.665V5.60352H82.874V6.62891ZM85.458 8.15332H86.9824C87.6888 8.15788 88.2516 8.37435 88.6709 8.80273C89.0902 9.23112 89.2998 9.81445 89.2998 10.5527C89.2998 11.291 89.0879 11.8835 88.6641 12.3301C88.2402 12.7721 87.6797 12.9954 86.9824 13H84.2549V5.60352H85.458V8.15332ZM85.458 9.18555V11.9678H86.9619C87.3174 11.9678 87.5931 11.847 87.7891 11.6055C87.9896 11.3639 88.0898 11.029 88.0898 10.6006C88.0898 10.1813 87.9919 9.8418 87.7959 9.58203C87.5999 9.32227 87.3311 9.1901 86.9893 9.18555H85.458ZM96.0674 9.84863H95.3838V13H94.1738V5.60352H95.3838V8.73438H95.9854L98.002 5.60352H99.4443L96.9766 9.12402L99.6221 13H98.1045L96.0674 9.84863ZM102.808 10.9902L104.154 5.60352H105.439L103.02 14.0459C102.837 14.6794 102.58 15.1602 102.247 15.4883C101.914 15.821 101.536 15.9873 101.112 15.9873C100.948 15.9873 100.739 15.9508 100.483 15.8779V14.8525L100.75 14.8799C101.101 14.8799 101.374 14.7956 101.57 14.627C101.771 14.4629 101.933 14.1758 102.056 13.7656L102.295 12.9385L100.121 5.60352H101.44L102.808 10.9902ZM111.968 9.65723C111.968 10.8285 111.756 11.7012 111.332 12.2754C110.913 12.8496 110.318 13.1367 109.548 13.1367C108.805 13.1367 108.233 12.8564 107.832 12.2959V15.8438H106.629V5.60352H107.723L107.784 6.42383C108.19 5.78581 108.771 5.4668 109.527 5.4668C110.339 5.4668 110.945 5.74935 111.346 6.31445C111.747 6.87956 111.954 7.72493 111.968 8.85059V9.65723ZM110.765 8.9668C110.765 8.13737 110.637 7.52669 110.382 7.13477C110.127 6.73828 109.716 6.54004 109.151 6.54004C108.573 6.54004 108.133 6.82943 107.832 7.4082V11.2568C108.128 11.8219 108.573 12.1045 109.165 12.1045C109.712 12.1045 110.113 11.9085 110.368 11.5166C110.628 11.1201 110.76 10.5163 110.765 9.70508V8.9668ZM116.097 12.1045C116.498 12.1045 116.819 11.9814 117.061 11.7354C117.302 11.4847 117.434 11.1292 117.457 10.6689H118.599C118.571 11.3799 118.318 11.9701 117.84 12.4395C117.366 12.9043 116.785 13.1367 116.097 13.1367C115.181 13.1367 114.481 12.8496 113.998 12.2754C113.52 11.6966 113.28 10.8376 113.28 9.69824V8.88477C113.28 7.76823 113.52 6.92057 113.998 6.3418C114.477 5.75846 115.174 5.4668 116.09 5.4668C116.846 5.4668 117.446 5.70605 117.888 6.18457C118.334 6.66309 118.571 7.31706 118.599 8.14648H117.457C117.43 7.59961 117.298 7.18945 117.061 6.91602C116.828 6.64258 116.505 6.50586 116.09 6.50586C115.552 6.50586 115.153 6.68359 114.894 7.03906C114.634 7.38997 114.499 7.96875 114.49 8.77539V9.71875C114.49 10.5892 114.618 11.2044 114.873 11.5645C115.133 11.9245 115.541 12.1045 116.097 12.1045ZM123.801 13C123.728 12.8405 123.675 12.5716 123.644 12.1934C123.215 12.8223 122.668 13.1367 122.003 13.1367C121.333 13.1367 120.809 12.9499 120.431 12.5762C120.057 12.1979 119.87 11.667 119.87 10.9834C119.87 10.2314 120.125 9.63444 120.636 9.19238C121.146 8.75033 121.846 8.52474 122.734 8.51562H123.623V7.72949C123.623 7.28743 123.525 6.97298 123.329 6.78613C123.133 6.59928 122.835 6.50586 122.434 6.50586C122.069 6.50586 121.773 6.61523 121.545 6.83398C121.317 7.04818 121.203 7.32161 121.203 7.6543H119.993C119.993 7.27604 120.105 6.91602 120.328 6.57422C120.551 6.22786 120.852 5.95671 121.23 5.76074C121.609 5.56478 122.03 5.4668 122.495 5.4668C123.252 5.4668 123.826 5.65592 124.218 6.03418C124.614 6.40788 124.817 6.95475 124.826 7.6748V11.4072C124.831 11.9769 124.908 12.4714 125.059 12.8906V13H123.801ZM122.188 12.0361C122.484 12.0361 122.766 11.9541 123.035 11.79C123.304 11.626 123.5 11.4209 123.623 11.1748V9.41113H122.939C122.365 9.42025 121.912 9.55013 121.579 9.80078C121.246 10.0469 121.08 10.3932 121.08 10.8398C121.08 11.2591 121.164 11.5645 121.333 11.7559C121.502 11.9427 121.786 12.0361 122.188 12.0361ZM40.1768 18.3701L40.8604 18.8623C40.5003 19.4548 40.3135 20.0745 40.2998 20.7217V21.665H39.1035V20.8721C39.1035 20.4118 39.2038 19.9515 39.4043 19.4912C39.6048 19.0264 39.8623 18.6527 40.1768 18.3701ZM42.125 18.3701L42.8086 18.8623C42.4486 19.4548 42.2617 20.0745 42.248 20.7217V21.665H41.0518V20.8721C41.0518 20.4118 41.152 19.9515 41.3525 19.4912C41.5531 19.0264 41.8105 18.6527 42.125 18.3701ZM44.1074 29V19.0469H46.9443C47.8512 19.0469 48.5326 19.2679 48.9883 19.71C49.4486 20.152 49.6787 20.8151 49.6787 21.6992C49.6787 22.1641 49.5625 22.5742 49.3301 22.9297C49.0977 23.2852 48.7832 23.5609 48.3867 23.7568C48.8424 23.8936 49.2025 24.1738 49.4668 24.5977C49.7357 25.0215 49.8701 25.5319 49.8701 26.1289C49.8701 27.0221 49.624 27.724 49.1318 28.2344C48.6442 28.7448 47.9469 29 47.04 29H44.1074ZM45.3584 24.3447V27.9268H47.0674C47.5413 27.9268 47.9173 27.7718 48.1953 27.4619C48.4733 27.1475 48.6123 26.7077 48.6123 26.1426C48.6123 24.944 48.1064 24.3447 47.0947 24.3447H45.3584ZM45.3584 23.292H46.9648C47.3978 23.292 47.7464 23.1462 48.0107 22.8545C48.2796 22.5628 48.4141 22.1755 48.4141 21.6924C48.4141 21.1455 48.2933 20.749 48.0518 20.5029C47.8102 20.2523 47.4411 20.127 46.9443 20.127H45.3584V23.292ZM54.6348 22.7383C54.4661 22.7064 54.2839 22.6904 54.0879 22.6904C53.4681 22.6904 53.0352 23.0299 52.7891 23.709V29H51.5791V21.6035H52.7549L52.7754 22.3555C53.099 21.763 53.557 21.4668 54.1494 21.4668C54.3408 21.4668 54.5003 21.4987 54.6279 21.5625L54.6348 22.7383ZM55.4551 24.96C55.4551 23.8844 55.7148 23.0345 56.2344 22.4102C56.7585 21.7812 57.4489 21.4668 58.3057 21.4668C59.1624 21.4668 59.8506 21.7721 60.3701 22.3828C60.8942 22.9935 61.1631 23.8252 61.1768 24.8779V25.6572C61.1768 26.7282 60.917 27.5758 60.3975 28.2002C59.8779 28.8245 59.1852 29.1367 58.3193 29.1367C57.4626 29.1367 56.7744 28.8337 56.2549 28.2275C55.7399 27.6214 55.4733 26.8011 55.4551 25.7666V24.96ZM56.665 25.6572C56.665 26.4183 56.8132 27.0176 57.1094 27.4551C57.4102 27.888 57.8135 28.1045 58.3193 28.1045C59.3857 28.1045 59.9349 27.3343 59.9668 25.7939V24.96C59.9668 24.2035 59.8164 23.6064 59.5156 23.1689C59.2148 22.7269 58.8115 22.5059 58.3057 22.5059C57.8089 22.5059 57.4102 22.7269 57.1094 23.1689C56.8132 23.6064 56.665 24.2012 56.665 24.9531V25.6572ZM68.252 26.874L69.373 21.6035H70.5693L68.7578 29H67.7939L66.3516 23.709L64.9434 29H63.9727L62.1748 21.6035H63.3643L64.5127 26.7441L65.8867 21.6035H66.8438L68.252 26.874ZM76.8379 19.0469L79.4355 27.168L82.0332 19.0469H83.6465V29H82.3955V25.124L82.5117 21.2412L79.9072 29H78.9502L76.3594 21.2686L76.4756 25.124V29H75.2246V19.0469H76.8379ZM89.4434 29C89.3704 28.8405 89.318 28.5716 89.2861 28.1934C88.8577 28.8223 88.3109 29.1367 87.6455 29.1367C86.9756 29.1367 86.4515 28.9499 86.0732 28.5762C85.6995 28.1979 85.5127 27.667 85.5127 26.9834C85.5127 26.2314 85.7679 25.6344 86.2783 25.1924C86.7887 24.7503 87.4883 24.5247 88.377 24.5156H89.2656V23.7295C89.2656 23.2874 89.1676 22.973 88.9717 22.7861C88.7757 22.5993 88.4772 22.5059 88.0762 22.5059C87.7116 22.5059 87.4154 22.6152 87.1875 22.834C86.9596 23.0482 86.8457 23.3216 86.8457 23.6543H85.6357C85.6357 23.276 85.7474 22.916 85.9707 22.5742C86.194 22.2279 86.4948 21.9567 86.873 21.7607C87.2513 21.5648 87.6729 21.4668 88.1377 21.4668C88.8942 21.4668 89.4684 21.6559 89.8604 22.0342C90.2568 22.4079 90.4596 22.9548 90.4688 23.6748V27.4072C90.4733 27.9769 90.5508 28.4714 90.7012 28.8906V29H89.4434ZM87.8301 28.0361C88.1263 28.0361 88.4089 27.9541 88.6777 27.79C88.9466 27.626 89.1426 27.4209 89.2656 27.1748V25.4111H88.582C88.0078 25.4202 87.5544 25.5501 87.2217 25.8008C86.889 26.0469 86.7227 26.3932 86.7227 26.8398C86.7227 27.2591 86.807 27.5645 86.9756 27.7559C87.1442 27.9427 87.429 28.0361 87.8301 28.0361ZM95.9443 27.1064C95.9443 26.8467 95.8464 26.6234 95.6504 26.4365C95.4544 26.2497 95.0762 26.0309 94.5156 25.7803C93.8639 25.5114 93.4036 25.2812 93.1348 25.0898C92.8704 24.8984 92.6722 24.682 92.54 24.4404C92.4079 24.1943 92.3418 23.9027 92.3418 23.5654C92.3418 22.9639 92.5605 22.4648 92.998 22.0684C93.4401 21.6673 94.0029 21.4668 94.6865 21.4668C95.4066 21.4668 95.9854 21.6764 96.4229 22.0957C96.8604 22.515 97.0791 23.0527 97.0791 23.709H95.876C95.876 23.3763 95.7643 23.0938 95.541 22.8613C95.3177 22.6243 95.0329 22.5059 94.6865 22.5059C94.3311 22.5059 94.0508 22.5993 93.8457 22.7861C93.6452 22.9684 93.5449 23.2145 93.5449 23.5244C93.5449 23.7705 93.6178 23.9688 93.7637 24.1191C93.9141 24.2695 94.2718 24.4678 94.8369 24.7139C95.7347 25.0648 96.3454 25.4089 96.6689 25.7461C96.9925 26.0788 97.1543 26.5026 97.1543 27.0176C97.1543 27.6602 96.9333 28.1751 96.4912 28.5625C96.0492 28.9453 95.4567 29.1367 94.7139 29.1367C93.9437 29.1367 93.3193 28.9157 92.8408 28.4736C92.3623 28.0316 92.123 27.471 92.123 26.792H93.3398C93.3535 27.2021 93.4788 27.5234 93.7158 27.7559C93.9528 27.9883 94.2855 28.1045 94.7139 28.1045C95.1149 28.1045 95.4202 28.0156 95.6299 27.8379C95.8395 27.6556 95.9443 27.4118 95.9443 27.1064ZM100.319 19.8125V21.6035H101.434V22.5811H100.319V27.168C100.319 27.4596 100.367 27.6807 100.463 27.8311C100.559 27.9814 100.723 28.0566 100.955 28.0566C101.115 28.0566 101.276 28.0293 101.44 27.9746L101.427 29C101.153 29.0911 100.873 29.1367 100.586 29.1367C100.107 29.1367 99.7428 28.9658 99.4922 28.624C99.2415 28.2822 99.1162 27.7992 99.1162 27.1748V22.5811H97.9883V21.6035H99.1162V19.8125H100.319ZM105.521 29.1367C104.601 29.1367 103.895 28.8633 103.402 28.3164C102.91 27.765 102.66 26.9583 102.65 25.8965V25.001C102.65 23.8981 102.89 23.0345 103.368 22.4102C103.851 21.7812 104.523 21.4668 105.385 21.4668C106.251 21.4668 106.898 21.7425 107.326 22.2939C107.755 22.8454 107.973 23.7044 107.982 24.8711V25.6641H103.854V25.835C103.854 26.6279 104.002 27.2044 104.298 27.5645C104.599 27.9245 105.029 28.1045 105.59 28.1045C105.945 28.1045 106.257 28.0384 106.526 27.9062C106.8 27.7695 107.055 27.5553 107.292 27.2637L107.921 28.0293C107.397 28.7676 106.597 29.1367 105.521 29.1367ZM105.385 22.5059C104.883 22.5059 104.512 22.679 104.271 23.0254C104.029 23.3672 103.892 23.9004 103.86 24.625H106.772V24.4609C106.741 23.7591 106.613 23.2578 106.39 22.957C106.171 22.6562 105.836 22.5059 105.385 22.5059ZM112.494 22.7383C112.326 22.7064 112.143 22.6904 111.947 22.6904C111.327 22.6904 110.895 23.0299 110.648 23.709V29H109.438V21.6035H110.614L110.635 22.3555C110.958 21.763 111.416 21.4668 112.009 21.4668C112.2 21.4668 112.36 21.4987 112.487 21.5625L112.494 22.7383ZM114.053 21.8496L113.376 21.3574C113.731 20.7604 113.916 20.1406 113.93 19.498V18.5H115.126V19.4229C115.117 19.8604 115.014 20.3047 114.818 20.7559C114.627 21.2025 114.372 21.5671 114.053 21.8496ZM115.953 21.8496L115.276 21.3574C115.632 20.7604 115.816 20.1406 115.83 19.498V18.5H117.026V19.4229C117.017 19.8604 116.915 20.3047 116.719 20.7559C116.527 21.2025 116.272 21.5671 115.953 21.8496ZM35.2139 40.96C35.2139 39.8844 35.4736 39.0345 35.9932 38.4102C36.5173 37.7812 37.2077 37.4668 38.0645 37.4668C38.9212 37.4668 39.6094 37.7721 40.1289 38.3828C40.653 38.9935 40.9219 39.8252 40.9355 40.8779V41.6572C40.9355 42.7282 40.6758 43.5758 40.1562 44.2002C39.6367 44.8245 38.944 45.1367 38.0781 45.1367C37.2214 45.1367 36.5332 44.8337 36.0137 44.2275C35.4987 43.6214 35.2321 42.8011 35.2139 41.7666V40.96ZM36.4238 41.6572C36.4238 42.4183 36.5719 43.0176 36.8682 43.4551C37.1689 43.888 37.5723 44.1045 38.0781 44.1045C39.1445 44.1045 39.6937 43.3343 39.7256 41.7939V40.96C39.7256 40.2035 39.5752 39.6064 39.2744 39.1689C38.9736 38.7269 38.5703 38.5059 38.0645 38.5059C37.5677 38.5059 37.1689 38.7269 36.8682 39.1689C36.5719 39.6064 36.4238 40.2012 36.4238 40.9531V41.6572ZM45.0645 44.1045C45.4655 44.1045 45.7868 43.9814 46.0283 43.7354C46.2699 43.4847 46.402 43.1292 46.4248 42.6689H47.5664C47.5391 43.3799 47.2861 43.9701 46.8076 44.4395C46.3337 44.9043 45.7526 45.1367 45.0645 45.1367C44.1484 45.1367 43.4489 44.8496 42.9658 44.2754C42.4873 43.6966 42.248 42.8376 42.248 41.6982V40.8848C42.248 39.7682 42.4873 38.9206 42.9658 38.3418C43.4443 37.7585 44.1416 37.4668 45.0576 37.4668C45.8141 37.4668 46.4134 37.7061 46.8555 38.1846C47.3021 38.6631 47.5391 39.3171 47.5664 40.1465H46.4248C46.3975 39.5996 46.2653 39.1895 46.0283 38.916C45.7959 38.6426 45.4723 38.5059 45.0576 38.5059C44.5199 38.5059 44.1211 38.6836 43.8613 39.0391C43.6016 39.39 43.4671 39.9688 43.458 40.7754V41.7188C43.458 42.5892 43.5856 43.2044 43.8408 43.5645C44.1006 43.9245 44.5085 44.1045 45.0645 44.1045ZM54.1562 45H52.9531V41.8418H50.2871V45H49.0703V37.6035H50.2871V40.8096H52.9531V37.6035H54.1562V45ZM55.8311 40.96C55.8311 39.8844 56.0908 39.0345 56.6104 38.4102C57.1344 37.7812 57.8249 37.4668 58.6816 37.4668C59.5384 37.4668 60.2266 37.7721 60.7461 38.3828C61.2702 38.9935 61.5391 39.8252 61.5527 40.8779V41.6572C61.5527 42.7282 61.293 43.5758 60.7734 44.2002C60.2539 44.8245 59.5612 45.1367 58.6953 45.1367C57.8385 45.1367 57.1504 44.8337 56.6309 44.2275C56.1159 43.6214 55.8493 42.8011 55.8311 41.7666V40.96ZM57.041 41.6572C57.041 42.4183 57.1891 43.0176 57.4854 43.4551C57.7861 43.888 58.1895 44.1045 58.6953 44.1045C59.7617 44.1045 60.3109 43.3343 60.3428 41.7939V40.96C60.3428 40.2035 60.1924 39.6064 59.8916 39.1689C59.5908 38.7269 59.1875 38.5059 58.6816 38.5059C58.1849 38.5059 57.7861 38.7269 57.4854 39.1689C57.1891 39.6064 57.041 40.2012 57.041 40.9531V41.6572ZM63.2207 45V37.6035H65.7021C66.5498 37.6035 67.1969 37.7767 67.6436 38.123C68.0902 38.4694 68.3135 38.973 68.3135 39.6338C68.3135 39.9756 68.2246 40.2832 68.0469 40.5566C67.8691 40.8301 67.6094 41.0397 67.2676 41.1855C67.6458 41.2858 67.9489 41.4886 68.1768 41.7939C68.4092 42.0993 68.5254 42.4684 68.5254 42.9014C68.5254 43.585 68.3112 44.1068 67.8828 44.4668C67.459 44.8223 66.8574 45 66.0781 45H63.2207ZM64.4238 41.7529V43.9814H66.0918C66.9076 43.9814 67.3154 43.6077 67.3154 42.8604C67.3154 42.1221 66.903 41.7529 66.0781 41.7529H64.4238ZM64.4238 40.7412H65.6885C66.6318 40.7412 67.1035 40.3949 67.1035 39.7021C67.1035 39.0049 66.6592 38.6471 65.7705 38.6289H64.4238V40.7412ZM75.3613 45H74.1582V41.8418H71.4922V45H70.2754V37.6035H71.4922V40.8096H74.1582V37.6035H75.3613V45ZM77.0361 40.96C77.0361 39.8844 77.2959 39.0345 77.8154 38.4102C78.3395 37.7812 79.0299 37.4668 79.8867 37.4668C80.7435 37.4668 81.4316 37.7721 81.9512 38.3828C82.4753 38.9935 82.7441 39.8252 82.7578 40.8779V41.6572C82.7578 42.7282 82.498 43.5758 81.9785 44.2002C81.459 44.8245 80.7663 45.1367 79.9004 45.1367C79.0436 45.1367 78.3555 44.8337 77.8359 44.2275C77.321 43.6214 77.0544 42.8011 77.0361 41.7666V40.96ZM78.2461 41.6572C78.2461 42.4183 78.3942 43.0176 78.6904 43.4551C78.9912 43.888 79.3945 44.1045 79.9004 44.1045C80.9668 44.1045 81.516 43.3343 81.5479 41.7939V40.96C81.5479 40.2035 81.3975 39.6064 81.0967 39.1689C80.7959 38.7269 80.3926 38.5059 79.8867 38.5059C79.39 38.5059 78.9912 38.7269 78.6904 39.1689C78.3942 39.6064 78.2461 40.2012 78.2461 40.9531V41.6572ZM88.3154 37.6035H89.5186V45H88.3154V39.6064L85.6357 45H84.4258V37.6035H85.6357V43.0039L88.3154 37.6035ZM89.0264 34.9102C89.0264 35.4616 88.8372 35.9059 88.459 36.2432C88.0853 36.5758 87.5931 36.7422 86.9824 36.7422C86.3717 36.7422 85.8773 36.5736 85.499 36.2363C85.1208 35.8991 84.9316 35.457 84.9316 34.9102H85.9639C85.9639 35.2292 86.0505 35.4798 86.2236 35.6621C86.3968 35.8398 86.6497 35.9287 86.9824 35.9287C87.3014 35.9287 87.5498 35.8398 87.7275 35.6621C87.9098 35.4844 88.001 35.2337 88.001 34.9102H89.0264ZM97.4824 38.0273C98.2617 38.0273 98.8815 38.3372 99.3418 38.957C99.8021 39.5723 100.032 40.3971 100.032 41.4316V41.5342C100.032 42.6279 99.777 43.5029 99.2666 44.1592C98.7562 44.8109 98.0817 45.1367 97.2432 45.1367C96.4046 45.1367 95.7301 44.8063 95.2197 44.1455C94.7093 43.4847 94.4541 42.596 94.4541 41.4795V40.8574C94.4541 39.3307 94.6934 38.1094 95.1719 37.1934C95.6504 36.2728 96.3522 35.7054 97.2773 35.4912C97.8105 35.3682 98.1706 35.2223 98.3574 35.0537C98.5488 34.8851 98.6445 34.6618 98.6445 34.3838H99.6221L99.6152 34.6504C99.5605 35.5527 99.1276 36.1247 98.3164 36.3662L97.4824 36.5986C96.8809 36.7627 96.4183 37.0521 96.0947 37.4668C95.7757 37.8815 95.5684 38.4238 95.4727 39.0938C96.0286 38.3828 96.6986 38.0273 97.4824 38.0273ZM97.2363 39.0664C96.7533 39.0664 96.3704 39.2715 96.0879 39.6816C95.8099 40.0918 95.6709 40.7093 95.6709 41.5342C95.6709 42.3363 95.8099 42.9674 96.0879 43.4277C96.3659 43.8835 96.751 44.1113 97.2432 44.1113C97.7354 44.1113 98.1227 43.8812 98.4053 43.4209C98.6878 42.9606 98.8291 42.2793 98.8291 41.377C98.8291 40.666 98.6855 40.1032 98.3984 39.6885C98.1159 39.2738 97.7285 39.0664 97.2363 39.0664ZM106.663 37.6035V45H105.453V38.6494H103.505L103.389 41.1582C103.325 42.5482 103.138 43.5348 102.828 44.1182C102.518 44.6969 102.021 44.9909 101.338 45H100.935V43.8857L101.242 43.8584C101.579 43.8128 101.816 43.5872 101.953 43.1816C102.094 42.7715 102.188 41.9671 102.233 40.7686L102.35 37.6035H106.663ZM108.331 40.96C108.331 39.8844 108.591 39.0345 109.11 38.4102C109.634 37.7812 110.325 37.4668 111.182 37.4668C112.038 37.4668 112.727 37.7721 113.246 38.3828C113.77 38.9935 114.039 39.8252 114.053 40.8779V41.6572C114.053 42.7282 113.793 43.5758 113.273 44.2002C112.754 44.8245 112.061 45.1367 111.195 45.1367C110.339 45.1367 109.65 44.8337 109.131 44.2275C108.616 43.6214 108.349 42.8011 108.331 41.7666V40.96ZM109.541 41.6572C109.541 42.4183 109.689 43.0176 109.985 43.4551C110.286 43.888 110.689 44.1045 111.195 44.1045C112.262 44.1045 112.811 43.3343 112.843 41.7939V40.96C112.843 40.2035 112.692 39.6064 112.392 39.1689C112.091 38.7269 111.688 38.5059 111.182 38.5059C110.685 38.5059 110.286 38.7269 109.985 39.1689C109.689 39.6064 109.541 40.2012 109.541 40.9531V41.6572ZM117.621 41.8486H116.938V45H115.728V37.6035H116.938V40.7344H117.539L119.556 37.6035H120.998L118.53 41.124L121.176 45H119.658L117.621 41.8486Z" fill="white"/>
<rect x="0.5" y="104.904" width="155" height="47" fill="#7F8A6E" stroke="#385526"/>
<rect x="0.5" y="50.9038" width="155" height="53" fill="white" stroke="#385526"/>
<path d="M60.8281 85H58.7422V70.5508L55.1562 72.1562V70.1875L60.5 67.8555H60.8281V85ZM67.3555 76.4453L68.0938 67.9375H75.5117V69.9414H69.8398L69.4414 74.5938C70.1445 74.1016 70.9023 73.8555 71.7148 73.8555C73.043 73.8555 74.0859 74.3711 74.8438 75.4023C75.6016 76.4336 75.9805 77.8203 75.9805 79.5625C75.9805 81.3281 75.5664 82.7148 74.7383 83.7227C73.918 84.7305 72.7891 85.2344 71.3516 85.2344C70.0703 85.2344 69.0273 84.8164 68.2227 83.9805C67.418 83.1445 66.957 81.9883 66.8398 80.5117H68.7852C68.9023 81.4883 69.1797 82.2266 69.6172 82.7266C70.0625 83.2188 70.6406 83.4648 71.3516 83.4648C72.1562 83.4648 72.7852 83.1172 73.2383 82.4219C73.6914 81.7188 73.918 80.7734 73.918 79.5859C73.918 78.4688 73.6719 77.5586 73.1797 76.8555C72.6953 76.1523 72.0391 75.8008 71.2109 75.8008C70.5234 75.8008 69.9727 75.9805 69.5586 76.3398L69.0078 76.8906L67.3555 76.4453ZM87.4883 77.7227C87.4883 80.2383 87.1211 82.1211 86.3867 83.3711C85.6523 84.6133 84.5 85.2344 82.9297 85.2344C81.4062 85.2344 80.2695 84.6367 79.5195 83.4414C78.7695 82.2461 78.3789 80.4492 78.3477 78.0508V75.1211C78.3477 72.6289 78.7148 70.7695 79.4492 69.543C80.1914 68.3164 81.3438 67.7031 82.9062 67.7031C84.4453 67.7031 85.582 68.2852 86.3164 69.4492C87.0586 70.6133 87.4492 72.375 87.4883 74.7344V77.7227ZM85.4141 74.7578C85.4141 72.9531 85.2148 71.625 84.8164 70.7734C84.418 69.9141 83.7812 69.4844 82.9062 69.4844C82.0547 69.4844 81.4297 69.9062 81.0312 70.75C80.6328 71.5859 80.4258 72.8516 80.4102 74.5469V78.0625C80.4102 79.8594 80.6172 81.2109 81.0312 82.1172C81.4453 83.0156 82.0781 83.4648 82.9297 83.4648C83.7734 83.4648 84.3945 83.0391 84.793 82.1875C85.1914 81.3359 85.3984 80.0352 85.4141 78.2852V74.7578ZM97.3438 80.6055C97.3438 79.8945 97.1484 79.2969 96.7578 78.8125C96.3672 78.3203 95.6953 77.8672 94.7422 77.4531C93.3438 76.9453 92.3242 76.2852 91.6836 75.4727C91.043 74.6523 90.7227 73.6133 90.7227 72.3555C90.7227 71.0742 91.0312 70.0312 91.6484 69.2266C92.2734 68.4141 93.1211 67.9219 94.1914 67.75V65.1719H95.8438V67.7617C96.9375 67.957 97.7812 68.5156 98.375 69.4375C98.9766 70.3516 99.2773 71.6016 99.2773 73.1875H97.2266C97.2266 72.1016 97.0273 71.2305 96.6289 70.5742C96.2305 69.918 95.6836 69.5898 94.9883 69.5898C94.293 69.5898 93.75 69.8281 93.3594 70.3047C92.9766 70.7812 92.7852 71.4531 92.7852 72.3203C92.7852 73.1094 92.9922 73.7422 93.4062 74.2188C93.8281 74.6875 94.5117 75.1211 95.457 75.5195C96.8711 76.0508 97.8828 76.7148 98.4922 77.5117C99.1094 78.3008 99.418 79.3242 99.418 80.582C99.418 81.8633 99.0898 82.9102 98.4336 83.7227C97.7773 84.5352 96.8359 85.0234 95.6094 85.1875V87.4375H93.9805V85.1875C92.7461 85.0078 91.8008 84.4688 91.1445 83.5703C90.4883 82.6719 90.1602 81.4727 90.1602 79.9727H92.2227C92.2227 81.0586 92.4414 81.8945 92.8789 82.4805C93.3164 83.0664 93.9336 83.3594 94.7305 83.3594C95.543 83.3594 96.1797 83.1172 96.6406 82.6328C97.1094 82.1406 97.3438 81.4648 97.3438 80.6055Z" fill="black"/>
<path d="M39.4766 127.297L39.9688 121.625H44.9141V122.961H41.1328L40.8672 126.062C41.3359 125.734 41.8411 125.57 42.3828 125.57C43.2682 125.57 43.9635 125.914 44.4688 126.602C44.974 127.289 45.2266 128.214 45.2266 129.375C45.2266 130.552 44.9505 131.477 44.3984 132.148C43.8516 132.82 43.099 133.156 42.1406 133.156C41.2865 133.156 40.5911 132.878 40.0547 132.32C39.5182 131.763 39.2109 130.992 39.1328 130.008H40.4297C40.5078 130.659 40.6927 131.151 40.9844 131.484C41.2812 131.812 41.6667 131.977 42.1406 131.977C42.6771 131.977 43.0964 131.745 43.3984 131.281C43.7005 130.812 43.8516 130.182 43.8516 129.391C43.8516 128.646 43.6875 128.039 43.3594 127.57C43.0365 127.102 42.599 126.867 42.0469 126.867C41.5885 126.867 41.2214 126.987 40.9453 127.227L40.5781 127.594L39.4766 127.297ZM50.3203 128.383C50.3203 127.154 50.6172 126.182 51.2109 125.469C51.8099 124.75 52.599 124.391 53.5781 124.391C54.5573 124.391 55.3438 124.74 55.9375 125.438C56.5365 126.135 56.8438 127.086 56.8594 128.289V129.18C56.8594 130.404 56.5625 131.372 55.9688 132.086C55.375 132.799 54.5833 133.156 53.5938 133.156C52.6146 133.156 51.8281 132.81 51.2344 132.117C50.6458 131.424 50.3411 130.487 50.3203 129.305V128.383ZM51.7031 129.18C51.7031 130.049 51.8724 130.734 52.2109 131.234C52.5547 131.729 53.0156 131.977 53.5938 131.977C54.8125 131.977 55.4401 131.096 55.4766 129.336V128.383C55.4766 127.518 55.3047 126.836 54.9609 126.336C54.6172 125.831 54.1562 125.578 53.5781 125.578C53.0104 125.578 52.5547 125.831 52.2109 126.336C51.8724 126.836 51.7031 127.516 51.7031 128.375V129.18ZM63.8125 125.719H61.5078V133H60.1328V125.719H57.8594V124.547H63.8125V125.719ZM71.375 129.18C71.375 130.518 71.1328 131.516 70.6484 132.172C70.1693 132.828 69.4896 133.156 68.6094 133.156C67.7604 133.156 67.1068 132.836 66.6484 132.195V136.25H65.2734V124.547H66.5234L66.5938 125.484C67.0573 124.755 67.7214 124.391 68.5859 124.391C69.513 124.391 70.2057 124.714 70.6641 125.359C71.1224 126.005 71.3594 126.971 71.375 128.258V129.18ZM70 128.391C70 127.443 69.8542 126.745 69.5625 126.297C69.2708 125.844 68.8021 125.617 68.1562 125.617C67.4948 125.617 66.9922 125.948 66.6484 126.609V131.008C66.987 131.654 67.4948 131.977 68.1719 131.977C68.7969 131.977 69.2552 131.753 69.5469 131.305C69.8438 130.852 69.9948 130.161 70 129.234V128.391ZM77.5078 133C77.4245 132.818 77.3646 132.51 77.3281 132.078C76.8385 132.797 76.2135 133.156 75.4531 133.156C74.6875 133.156 74.0885 132.943 73.6562 132.516C73.2292 132.083 73.0156 131.477 73.0156 130.695C73.0156 129.836 73.3073 129.154 73.8906 128.648C74.474 128.143 75.2734 127.885 76.2891 127.875H77.3047V126.977C77.3047 126.471 77.1927 126.112 76.9688 125.898C76.7448 125.685 76.4036 125.578 75.9453 125.578C75.5286 125.578 75.1901 125.703 74.9297 125.953C74.6693 126.198 74.5391 126.51 74.5391 126.891H73.1562C73.1562 126.458 73.2839 126.047 73.5391 125.656C73.7943 125.26 74.138 124.951 74.5703 124.727C75.0026 124.503 75.4844 124.391 76.0156 124.391C76.8802 124.391 77.5365 124.607 77.9844 125.039C78.4375 125.466 78.6693 126.091 78.6797 126.914V131.18C78.6849 131.831 78.7734 132.396 78.9453 132.875V133H77.5078ZM75.6641 131.898C76.0026 131.898 76.3255 131.805 76.6328 131.617C76.9401 131.43 77.1641 131.195 77.3047 130.914V128.898H76.5234C75.8672 128.909 75.349 129.057 74.9688 129.344C74.5885 129.625 74.3984 130.021 74.3984 130.531C74.3984 131.01 74.4948 131.359 74.6875 131.578C74.8802 131.792 75.2057 131.898 75.6641 131.898ZM84.0469 125.031C84.9375 125.031 85.6458 125.385 86.1719 126.094C86.6979 126.797 86.9609 127.74 86.9609 128.922V129.039C86.9609 130.289 86.6693 131.289 86.0859 132.039C85.5026 132.784 84.7318 133.156 83.7734 133.156C82.8151 133.156 82.0443 132.779 81.4609 132.023C80.8776 131.268 80.5859 130.253 80.5859 128.977V128.266C80.5859 126.521 80.8594 125.125 81.4062 124.078C81.9531 123.026 82.7552 122.378 83.8125 122.133C84.4219 121.992 84.8333 121.826 85.0469 121.633C85.2656 121.44 85.375 121.185 85.375 120.867H86.4922L86.4844 121.172C86.4219 122.203 85.9271 122.857 85 123.133L84.0469 123.398C83.3594 123.586 82.8307 123.917 82.4609 124.391C82.0964 124.865 81.8594 125.484 81.75 126.25C82.3854 125.438 83.151 125.031 84.0469 125.031ZM83.7656 126.219C83.2135 126.219 82.776 126.453 82.4531 126.922C82.1354 127.391 81.9766 128.096 81.9766 129.039C81.9766 129.956 82.1354 130.677 82.4531 131.203C82.7708 131.724 83.2109 131.984 83.7734 131.984C84.3359 131.984 84.7786 131.721 85.1016 131.195C85.4245 130.669 85.5859 129.891 85.5859 128.859C85.5859 128.047 85.4219 127.404 85.0938 126.93C84.7708 126.456 84.3281 126.219 83.7656 126.219ZM88.2891 128.383C88.2891 127.154 88.5859 126.182 89.1797 125.469C89.7786 124.75 90.5677 124.391 91.5469 124.391C92.526 124.391 93.3125 124.74 93.9062 125.438C94.5052 126.135 94.8125 127.086 94.8281 128.289V129.18C94.8281 130.404 94.5312 131.372 93.9375 132.086C93.3438 132.799 92.5521 133.156 91.5625 133.156C90.5833 133.156 89.7969 132.81 89.2031 132.117C88.6146 131.424 88.3099 130.487 88.2891 129.305V128.383ZM89.6719 129.18C89.6719 130.049 89.8411 130.734 90.1797 131.234C90.5234 131.729 90.9844 131.977 91.5625 131.977C92.7812 131.977 93.4089 131.096 93.4453 129.336V128.383C93.4453 127.518 93.2734 126.836 92.9297 126.336C92.5859 125.831 92.125 125.578 91.5469 125.578C90.9792 125.578 90.5234 125.831 90.1797 126.336C89.8411 126.836 89.6719 127.516 89.6719 128.375V129.18ZM101.781 125.719H99.4766V133H98.1016V125.719H95.8281V124.547H101.781V125.719ZM102.617 128.383C102.617 127.154 102.914 126.182 103.508 125.469C104.107 124.75 104.896 124.391 105.875 124.391C106.854 124.391 107.641 124.74 108.234 125.438C108.833 126.135 109.141 127.086 109.156 128.289V129.18C109.156 130.404 108.859 131.372 108.266 132.086C107.672 132.799 106.88 133.156 105.891 133.156C104.911 133.156 104.125 132.81 103.531 132.117C102.943 131.424 102.638 130.487 102.617 129.305V128.383ZM104 129.18C104 130.049 104.169 130.734 104.508 131.234C104.852 131.729 105.312 131.977 105.891 131.977C107.109 131.977 107.737 131.096 107.773 129.336V128.383C107.773 127.518 107.602 126.836 107.258 126.336C106.914 125.831 106.453 125.578 105.875 125.578C105.307 125.578 104.852 125.831 104.508 126.336C104.169 126.836 104 127.516 104 128.375V129.18ZM113.234 129.398H112.453V133H111.07V124.547H112.453V128.125H113.141L115.445 124.547H117.094L114.273 128.57L117.297 133H115.562L113.234 129.398Z" fill="white"/>
</svg>
