<svg width="156" height="171" viewBox="0 0 156 171" fill="none" xmlns="http://www.w3.org/2000/svg">
<rect x="0.5" y="0.903809" width="155" height="67" fill="#7F8A6E" stroke="#385526"/>
<path d="M33.7979 9.8418C33.7432 10.9082 33.4424 11.724 32.8955 12.2891C32.3532 12.8542 31.5853 13.1367 30.5918 13.1367C29.5938 13.1367 28.8008 12.7585 28.2129 12.002C27.625 11.2409 27.3311 10.2109 27.3311 8.91211V7.10742C27.3311 5.81315 27.6318 4.79004 28.2334 4.03809C28.8395 3.28613 29.6644 2.91016 30.708 2.91016C31.6696 2.91016 32.4124 3.19954 32.9365 3.77832C33.4652 4.35254 33.7523 5.17513 33.7979 6.24609H32.5332C32.4785 5.4349 32.3076 4.85612 32.0205 4.50977C31.7334 4.16341 31.2959 3.99023 30.708 3.99023C30.029 3.99023 29.5072 4.25684 29.1426 4.79004C28.778 5.31868 28.5957 6.0957 28.5957 7.12109V8.94629C28.5957 9.95345 28.7643 10.7259 29.1016 11.2637C29.4434 11.8014 29.9401 12.0703 30.5918 12.0703C31.2435 12.0703 31.7129 11.9085 32 11.585C32.2871 11.2614 32.4648 10.6803 32.5332 9.8418H33.7979ZM40.0049 6.62891H37.9883V13H36.7852V6.62891H34.7959V5.60352H40.0049V6.62891ZM40.7363 8.95996C40.7363 7.88444 40.9961 7.03451 41.5156 6.41016C42.0397 5.78125 42.7301 5.4668 43.5869 5.4668C44.4437 5.4668 45.1318 5.77214 45.6514 6.38281C46.1755 6.99349 46.4443 7.8252 46.458 8.87793V9.65723C46.458 10.7282 46.1982 11.5758 45.6787 12.2002C45.1592 12.8245 44.4665 13.1367 43.6006 13.1367C42.7438 13.1367 42.0557 12.8337 41.5361 12.2275C41.0212 11.6214 40.7546 10.8011 40.7363 9.7666V8.95996ZM41.9463 9.65723C41.9463 10.4183 42.0944 11.0176 42.3906 11.4551C42.6914 11.888 43.0947 12.1045 43.6006 12.1045C44.667 12.1045 45.2161 11.3343 45.248 9.79395V8.95996C45.248 8.20345 45.0977 7.60645 44.7969 7.16895C44.4961 6.72689 44.0928 6.50586 43.5869 6.50586C43.0902 6.50586 42.6914 6.72689 42.3906 7.16895C42.0944 7.60645 41.9463 8.20117 41.9463 8.95312V9.65723ZM52.0156 5.60352H53.2188V13H52.0156V7.60645L49.3359 13H48.126V5.60352H49.3359V11.0039L52.0156 5.60352ZM58.7832 11.3252L60.7656 5.60352H62.2695V13H61.0664V7.90039L59.2002 13H58.373L56.4658 7.77734V13H55.2627V5.60352H56.8213L58.7832 11.3252ZM63.9512 8.95996C63.9512 7.88444 64.2109 7.03451 64.7305 6.41016C65.2546 5.78125 65.945 5.4668 66.8018 5.4668C67.6585 5.4668 68.3467 5.77214 68.8662 6.38281C69.3903 6.99349 69.6592 7.8252 69.6729 8.87793V9.65723C69.6729 10.7282 69.4131 11.5758 68.8936 12.2002C68.374 12.8245 67.6813 13.1367 66.8154 13.1367C65.9587 13.1367 65.2705 12.8337 64.751 12.2275C64.236 11.6214 63.9694 10.8011 63.9512 9.7666V8.95996ZM65.1611 9.65723C65.1611 10.4183 65.3092 11.0176 65.6055 11.4551C65.9062 11.888 66.3096 12.1045 66.8154 12.1045C67.8818 12.1045 68.431 11.3343 68.4629 9.79395V8.95996C68.4629 8.20345 68.3125 7.60645 68.0117 7.16895C67.7109 6.72689 67.3076 6.50586 66.8018 6.50586C66.305 6.50586 65.9062 6.72689 65.6055 7.16895C65.3092 7.60645 65.1611 8.20117 65.1611 8.95312V9.65723ZM73.8018 12.1045C74.2028 12.1045 74.5241 11.9814 74.7656 11.7354C75.0072 11.4847 75.1393 11.1292 75.1621 10.6689H76.3037C76.2764 11.3799 76.0234 11.9701 75.5449 12.4395C75.071 12.9043 74.4899 13.1367 73.8018 13.1367C72.8857 13.1367 72.1862 12.8496 71.7031 12.2754C71.2246 11.6966 70.9854 10.8376 70.9854 9.69824V8.88477C70.9854 7.76823 71.2246 6.92057 71.7031 6.3418C72.1816 5.75846 72.8789 5.4668 73.7949 5.4668C74.5514 5.4668 75.1507 5.70605 75.5928 6.18457C76.0394 6.66309 76.2764 7.31706 76.3037 8.14648H75.1621C75.1348 7.59961 75.0026 7.18945 74.7656 6.91602C74.5332 6.64258 74.2096 6.50586 73.7949 6.50586C73.2572 6.50586 72.8584 6.68359 72.5986 7.03906C72.3389 7.38997 72.2044 7.96875 72.1953 8.77539V9.71875C72.1953 10.5892 72.3229 11.2044 72.5781 11.5645C72.8379 11.9245 73.2458 12.1045 73.8018 12.1045ZM82.374 6.62891H80.3574V13H79.1543V6.62891H77.165V5.60352H82.374V6.62891ZM84.958 8.15332H86.4824C87.1888 8.15788 87.7516 8.37435 88.1709 8.80273C88.5902 9.23112 88.7998 9.81445 88.7998 10.5527C88.7998 11.291 88.5879 11.8835 88.1641 12.3301C87.7402 12.7721 87.1797 12.9954 86.4824 13H83.7549V5.60352H84.958V8.15332ZM84.958 9.18555V11.9678H86.4619C86.8174 11.9678 87.0931 11.847 87.2891 11.6055C87.4896 11.3639 87.5898 11.029 87.5898 10.6006C87.5898 10.1813 87.4919 9.8418 87.2959 9.58203C87.0999 9.32227 86.8311 9.1901 86.4893 9.18555H84.958ZM95.5674 9.84863H94.8838V13H93.6738V5.60352H94.8838V8.73438H95.4854L97.502 5.60352H98.9443L96.4766 9.12402L99.1221 13H97.6045L95.5674 9.84863ZM102.308 10.9902L103.654 5.60352H104.939L102.52 14.0459C102.337 14.6794 102.08 15.1602 101.747 15.4883C101.414 15.821 101.036 15.9873 100.612 15.9873C100.448 15.9873 100.239 15.9508 99.9834 15.8779V14.8525L100.25 14.8799C100.601 14.8799 100.874 14.7956 101.07 14.627C101.271 14.4629 101.433 14.1758 101.556 13.7656L101.795 12.9385L99.6211 5.60352H100.94L102.308 10.9902ZM111.468 9.65723C111.468 10.8285 111.256 11.7012 110.832 12.2754C110.413 12.8496 109.818 13.1367 109.048 13.1367C108.305 13.1367 107.733 12.8564 107.332 12.2959V15.8438H106.129V5.60352H107.223L107.284 6.42383C107.69 5.78581 108.271 5.4668 109.027 5.4668C109.839 5.4668 110.445 5.74935 110.846 6.31445C111.247 6.87956 111.454 7.72493 111.468 8.85059V9.65723ZM110.265 8.9668C110.265 8.13737 110.137 7.52669 109.882 7.13477C109.627 6.73828 109.216 6.54004 108.651 6.54004C108.073 6.54004 107.633 6.82943 107.332 7.4082V11.2568C107.628 11.8219 108.073 12.1045 108.665 12.1045C109.212 12.1045 109.613 11.9085 109.868 11.5166C110.128 11.1201 110.26 10.5163 110.265 9.70508V8.9668ZM115.597 12.1045C115.998 12.1045 116.319 11.9814 116.561 11.7354C116.802 11.4847 116.934 11.1292 116.957 10.6689H118.099C118.071 11.3799 117.818 11.9701 117.34 12.4395C116.866 12.9043 116.285 13.1367 115.597 13.1367C114.681 13.1367 113.981 12.8496 113.498 12.2754C113.02 11.6966 112.78 10.8376 112.78 9.69824V8.88477C112.78 7.76823 113.02 6.92057 113.498 6.3418C113.977 5.75846 114.674 5.4668 115.59 5.4668C116.346 5.4668 116.946 5.70605 117.388 6.18457C117.834 6.66309 118.071 7.31706 118.099 8.14648H116.957C116.93 7.59961 116.798 7.18945 116.561 6.91602C116.328 6.64258 116.005 6.50586 115.59 6.50586C115.052 6.50586 114.653 6.68359 114.394 7.03906C114.134 7.38997 113.999 7.96875 113.99 8.77539V9.71875C113.99 10.5892 114.118 11.2044 114.373 11.5645C114.633 11.9245 115.041 12.1045 115.597 12.1045ZM123.301 13C123.228 12.8405 123.175 12.5716 123.144 12.1934C122.715 12.8223 122.168 13.1367 121.503 13.1367C120.833 13.1367 120.309 12.9499 119.931 12.5762C119.557 12.1979 119.37 11.667 119.37 10.9834C119.37 10.2314 119.625 9.63444 120.136 9.19238C120.646 8.75033 121.346 8.52474 122.234 8.51562H123.123V7.72949C123.123 7.28743 123.025 6.97298 122.829 6.78613C122.633 6.59928 122.335 6.50586 121.934 6.50586C121.569 6.50586 121.273 6.61523 121.045 6.83398C120.817 7.04818 120.703 7.32161 120.703 7.6543H119.493C119.493 7.27604 119.605 6.91602 119.828 6.57422C120.051 6.22786 120.352 5.95671 120.73 5.76074C121.109 5.56478 121.53 5.4668 121.995 5.4668C122.752 5.4668 123.326 5.65592 123.718 6.03418C124.114 6.40788 124.317 6.95475 124.326 7.6748V11.4072C124.331 11.9769 124.408 12.4714 124.559 12.8906V13H123.301ZM121.688 12.0361C121.984 12.0361 122.266 11.9541 122.535 11.79C122.804 11.626 123 11.4209 123.123 11.1748V9.41113H122.439C121.865 9.42025 121.412 9.55013 121.079 9.80078C120.746 10.0469 120.58 10.3932 120.58 10.8398C120.58 11.2591 120.664 11.5645 120.833 11.7559C121.002 11.9427 121.286 12.0361 121.688 12.0361ZM40.4902 18.3701L41.1738 18.8623C40.8138 19.4548 40.627 20.0745 40.6133 20.7217V21.665H39.417V20.8721C39.417 20.4118 39.5173 19.9515 39.7178 19.4912C39.9183 19.0264 40.1758 18.6527 40.4902 18.3701ZM42.4385 18.3701L43.1221 18.8623C42.762 19.4548 42.5752 20.0745 42.5615 20.7217V21.665H41.3652V20.8721C41.3652 20.4118 41.4655 19.9515 41.666 19.4912C41.8665 19.0264 42.124 18.6527 42.4385 18.3701ZM44.4209 29V19.0469H47.2578C48.1647 19.0469 48.846 19.2679 49.3018 19.71C49.762 20.152 49.9922 20.8151 49.9922 21.6992C49.9922 22.1641 49.876 22.5742 49.6436 22.9297C49.4111 23.2852 49.0967 23.5609 48.7002 23.7568C49.1559 23.8936 49.516 24.1738 49.7803 24.5977C50.0492 25.0215 50.1836 25.5319 50.1836 26.1289C50.1836 27.0221 49.9375 27.724 49.4453 28.2344C48.9577 28.7448 48.2604 29 47.3535 29H44.4209ZM45.6719 24.3447V27.9268H47.3809C47.8548 27.9268 48.2308 27.7718 48.5088 27.4619C48.7868 27.1475 48.9258 26.7077 48.9258 26.1426C48.9258 24.944 48.4199 24.3447 47.4082 24.3447H45.6719ZM45.6719 23.292H47.2783C47.7113 23.292 48.0599 23.1462 48.3242 22.8545C48.5931 22.5628 48.7275 22.1755 48.7275 21.6924C48.7275 21.1455 48.6068 20.749 48.3652 20.5029C48.1237 20.2523 47.7546 20.127 47.2578 20.127H45.6719V23.292ZM54.9482 22.7383C54.7796 22.7064 54.5973 22.6904 54.4014 22.6904C53.7816 22.6904 53.3486 23.0299 53.1025 23.709V29H51.8926V21.6035H53.0684L53.0889 22.3555C53.4124 21.763 53.8704 21.4668 54.4629 21.4668C54.6543 21.4668 54.8138 21.4987 54.9414 21.5625L54.9482 22.7383ZM55.7686 24.96C55.7686 23.8844 56.0283 23.0345 56.5479 22.4102C57.0719 21.7812 57.7624 21.4668 58.6191 21.4668C59.4759 21.4668 60.1641 21.7721 60.6836 22.3828C61.2077 22.9935 61.4766 23.8252 61.4902 24.8779V25.6572C61.4902 26.7282 61.2305 27.5758 60.7109 28.2002C60.1914 28.8245 59.4987 29.1367 58.6328 29.1367C57.776 29.1367 57.0879 28.8337 56.5684 28.2275C56.0534 27.6214 55.7868 26.8011 55.7686 25.7666V24.96ZM56.9785 25.6572C56.9785 26.4183 57.1266 27.0176 57.4229 27.4551C57.7236 27.888 58.127 28.1045 58.6328 28.1045C59.6992 28.1045 60.2484 27.3343 60.2803 25.7939V24.96C60.2803 24.2035 60.1299 23.6064 59.8291 23.1689C59.5283 22.7269 59.125 22.5059 58.6191 22.5059C58.1224 22.5059 57.7236 22.7269 57.4229 23.1689C57.1266 23.6064 56.9785 24.2012 56.9785 24.9531V25.6572ZM68.5654 26.874L69.6865 21.6035H70.8828L69.0713 29H68.1074L66.665 23.709L65.2568 29H64.2861L62.4883 21.6035H63.6777L64.8262 26.7441L66.2002 21.6035H67.1572L68.5654 26.874ZM77.1514 19.0469L79.749 27.168L82.3467 19.0469H83.96V29H82.709V25.124L82.8252 21.2412L80.2207 29H79.2637L76.6729 21.2686L76.7891 25.124V29H75.5381V19.0469H77.1514ZM89.7568 29C89.6839 28.8405 89.6315 28.5716 89.5996 28.1934C89.1712 28.8223 88.6243 29.1367 87.959 29.1367C87.2891 29.1367 86.765 28.9499 86.3867 28.5762C86.013 28.1979 85.8262 27.667 85.8262 26.9834C85.8262 26.2314 86.0814 25.6344 86.5918 25.1924C87.1022 24.7503 87.8018 24.5247 88.6904 24.5156H89.5791V23.7295C89.5791 23.2874 89.4811 22.973 89.2852 22.7861C89.0892 22.5993 88.7907 22.5059 88.3896 22.5059C88.0251 22.5059 87.7288 22.6152 87.501 22.834C87.2731 23.0482 87.1592 23.3216 87.1592 23.6543H85.9492C85.9492 23.276 86.0609 22.916 86.2842 22.5742C86.5075 22.2279 86.8083 21.9567 87.1865 21.7607C87.5648 21.5648 87.9863 21.4668 88.4512 21.4668C89.2077 21.4668 89.7819 21.6559 90.1738 22.0342C90.5703 22.4079 90.7731 22.9548 90.7822 23.6748V27.4072C90.7868 27.9769 90.8643 28.4714 91.0146 28.8906V29H89.7568ZM88.1436 28.0361C88.4398 28.0361 88.7223 27.9541 88.9912 27.79C89.2601 27.626 89.4561 27.4209 89.5791 27.1748V25.4111H88.8955C88.3213 25.4202 87.8678 25.5501 87.5352 25.8008C87.2025 26.0469 87.0361 26.3932 87.0361 26.8398C87.0361 27.2591 87.1204 27.5645 87.2891 27.7559C87.4577 27.9427 87.7425 28.0361 88.1436 28.0361ZM96.2578 27.1064C96.2578 26.8467 96.1598 26.6234 95.9639 26.4365C95.7679 26.2497 95.3896 26.0309 94.8291 25.7803C94.1774 25.5114 93.7171 25.2812 93.4482 25.0898C93.1839 24.8984 92.9857 24.682 92.8535 24.4404C92.7214 24.1943 92.6553 23.9027 92.6553 23.5654C92.6553 22.9639 92.874 22.4648 93.3115 22.0684C93.7536 21.6673 94.3164 21.4668 95 21.4668C95.7201 21.4668 96.2988 21.6764 96.7363 22.0957C97.1738 22.515 97.3926 23.0527 97.3926 23.709H96.1895C96.1895 23.3763 96.0778 23.0938 95.8545 22.8613C95.6312 22.6243 95.3464 22.5059 95 22.5059C94.6445 22.5059 94.3643 22.5993 94.1592 22.7861C93.9587 22.9684 93.8584 23.2145 93.8584 23.5244C93.8584 23.7705 93.9313 23.9688 94.0771 24.1191C94.2275 24.2695 94.5853 24.4678 95.1504 24.7139C96.0482 25.0648 96.6589 25.4089 96.9824 25.7461C97.306 26.0788 97.4678 26.5026 97.4678 27.0176C97.4678 27.6602 97.2467 28.1751 96.8047 28.5625C96.3626 28.9453 95.7702 29.1367 95.0273 29.1367C94.2572 29.1367 93.6328 28.9157 93.1543 28.4736C92.6758 28.0316 92.4365 27.471 92.4365 26.792H93.6533C93.667 27.2021 93.7923 27.5234 94.0293 27.7559C94.2663 27.9883 94.599 28.1045 95.0273 28.1045C95.4284 28.1045 95.7337 28.0156 95.9434 27.8379C96.153 27.6556 96.2578 27.4118 96.2578 27.1064ZM100.633 19.8125V21.6035H101.747V22.5811H100.633V27.168C100.633 27.4596 100.681 27.6807 100.776 27.8311C100.872 27.9814 101.036 28.0566 101.269 28.0566C101.428 28.0566 101.59 28.0293 101.754 27.9746L101.74 29C101.467 29.0911 101.187 29.1367 100.899 29.1367C100.421 29.1367 100.056 28.9658 99.8057 28.624C99.555 28.2822 99.4297 27.7992 99.4297 27.1748V22.5811H98.3018V21.6035H99.4297V19.8125H100.633ZM105.835 29.1367C104.914 29.1367 104.208 28.8633 103.716 28.3164C103.224 27.765 102.973 26.9583 102.964 25.8965V25.001C102.964 23.8981 103.203 23.0345 103.682 22.4102C104.165 21.7812 104.837 21.4668 105.698 21.4668C106.564 21.4668 107.211 21.7425 107.64 22.2939C108.068 22.8454 108.287 23.7044 108.296 24.8711V25.6641H104.167V25.835C104.167 26.6279 104.315 27.2044 104.611 27.5645C104.912 27.9245 105.343 28.1045 105.903 28.1045C106.259 28.1045 106.571 28.0384 106.84 27.9062C107.113 27.7695 107.368 27.5553 107.605 27.2637L108.234 28.0293C107.71 28.7676 106.91 29.1367 105.835 29.1367ZM105.698 22.5059C105.197 22.5059 104.826 22.679 104.584 23.0254C104.342 23.3672 104.206 23.9004 104.174 24.625H107.086V24.4609C107.054 23.7591 106.926 23.2578 106.703 22.957C106.484 22.6562 106.149 22.5059 105.698 22.5059ZM112.808 22.7383C112.639 22.7064 112.457 22.6904 112.261 22.6904C111.641 22.6904 111.208 23.0299 110.962 23.709V29H109.752V21.6035H110.928L110.948 22.3555C111.272 21.763 111.73 21.4668 112.322 21.4668C112.514 21.4668 112.673 21.4987 112.801 21.5625L112.808 22.7383ZM78.0947 39.6611H80.3438V40.8574H78.0947V44.002H76.8779V40.8574H74.6084V39.6611H76.8779V36.7559H78.0947V39.6611ZM6.80957 59.9678L7.17188 59.4482C7.5638 58.8467 7.78939 57.9603 7.84863 56.7891L7.95117 53.6035H12.0801V59.9678H12.9414V63.1738H11.7314V61H7.52734V63.1738H6.31055L6.31738 59.9678H6.80957ZM8.15625 59.9678H10.877V54.7725H9.12695L9.06543 56.5771C9.00163 58.0173 8.69857 59.1475 8.15625 59.9678ZM14.0762 56.96C14.0762 55.8844 14.3359 55.0345 14.8555 54.4102C15.3796 53.7812 16.07 53.4668 16.9268 53.4668C17.7835 53.4668 18.4717 53.7721 18.9912 54.3828C19.5153 54.9935 19.7842 55.8252 19.7979 56.8779V57.6572C19.7979 58.7282 19.5381 59.5758 19.0186 60.2002C18.499 60.8245 17.8063 61.1367 16.9404 61.1367C16.0837 61.1367 15.3955 60.8337 14.876 60.2275C14.361 59.6214 14.0944 58.8011 14.0762 57.7666V56.96ZM15.2861 57.6572C15.2861 58.4183 15.4342 59.0176 15.7305 59.4551C16.0312 59.888 16.4346 60.1045 16.9404 60.1045C18.0068 60.1045 18.556 59.3343 18.5879 57.7939V56.96C18.5879 56.2035 18.4375 55.6064 18.1367 55.1689C17.8359 54.7269 17.4326 54.5059 16.9268 54.5059C16.43 54.5059 16.0312 54.7269 15.7305 55.1689C15.4342 55.6064 15.2861 56.2012 15.2861 56.9531V57.6572ZM26.5586 61H25.3555V54.6494H22.6826V61H21.4658V53.6035H26.5586V61ZM28.2402 56.96C28.2402 55.8844 28.5 55.0345 29.0195 54.4102C29.5436 53.7812 30.234 53.4668 31.0908 53.4668C31.9476 53.4668 32.6357 53.7721 33.1553 54.3828C33.6794 54.9935 33.9482 55.8252 33.9619 56.8779V57.6572C33.9619 58.7282 33.7021 59.5758 33.1826 60.2002C32.6631 60.8245 31.9704 61.1367 31.1045 61.1367C30.2477 61.1367 29.5596 60.8337 29.04 60.2275C28.5251 59.6214 28.2585 58.8011 28.2402 57.7666V56.96ZM29.4502 57.6572C29.4502 58.4183 29.5983 59.0176 29.8945 59.4551C30.1953 59.888 30.5986 60.1045 31.1045 60.1045C32.1709 60.1045 32.7201 59.3343 32.752 57.7939V56.96C32.752 56.2035 32.6016 55.6064 32.3008 55.1689C32 54.7269 31.5967 54.5059 31.0908 54.5059C30.5941 54.5059 30.1953 54.7269 29.8945 55.1689C29.5983 55.6064 29.4502 56.2012 29.4502 56.9531V57.6572ZM40.627 53.6035V61H39.417V54.6494H37.4688L37.3525 57.1582C37.2887 58.5482 37.1019 59.5348 36.792 60.1182C36.4821 60.6969 35.9854 60.9909 35.3018 61H34.8984V59.8857L35.2061 59.8584C35.5433 59.8128 35.7803 59.5872 35.917 59.1816C36.0583 58.7715 36.1517 57.9671 36.1973 56.7686L36.3135 53.6035H40.627ZM47.7432 61H46.54V57.8418H43.874V61H42.6572V53.6035H43.874V56.8096H46.54V53.6035H47.7432V61ZM53.6699 53.6035H54.873V61H53.6699V55.6064L50.9902 61H49.7803V53.6035H50.9902V59.0039L53.6699 53.6035ZM61.4834 54.6289H59.4668V61H58.2637V54.6289H56.2744V53.6035H61.4834V54.6289ZM64.8535 61.1367C63.9329 61.1367 63.2266 60.8633 62.7344 60.3164C62.2422 59.765 61.9915 58.9583 61.9824 57.8965V57.001C61.9824 55.8981 62.2217 55.0345 62.7002 54.4102C63.1833 53.7812 63.8555 53.4668 64.7168 53.4668C65.5827 53.4668 66.2298 53.7425 66.6582 54.2939C67.0866 54.8454 67.3053 55.7044 67.3145 56.8711V57.6641H63.1855V57.835C63.1855 58.6279 63.3337 59.2044 63.6299 59.5645C63.9307 59.9245 64.3613 60.1045 64.9219 60.1045C65.2773 60.1045 65.5895 60.0384 65.8584 59.9062C66.1318 59.7695 66.387 59.5553 66.624 59.2637L67.2529 60.0293C66.7288 60.7676 65.929 61.1367 64.8535 61.1367ZM64.7168 54.5059C64.2155 54.5059 63.8441 54.679 63.6025 55.0254C63.361 55.3672 63.2243 55.9004 63.1924 56.625H66.1045V56.4609C66.0726 55.7591 65.945 55.2578 65.7217 54.957C65.5029 54.6562 65.168 54.5059 64.7168 54.5059ZM73.9863 53.6035V61H72.7764V54.6494H70.8281L70.7119 57.1582C70.6481 58.5482 70.4613 59.5348 70.1514 60.1182C69.8415 60.6969 69.3447 60.9909 68.6611 61H68.2578V59.8857L68.5654 59.8584C68.9027 59.8128 69.1396 59.5872 69.2764 59.1816C69.4176 58.7715 69.5111 57.9671 69.5566 56.7686L69.6729 53.6035H73.9863ZM77.2197 56.1533H78.7441C79.4505 56.1579 80.0133 56.3743 80.4326 56.8027C80.8519 57.2311 81.0615 57.8145 81.0615 58.5527C81.0615 59.291 80.8496 59.8835 80.4258 60.3301C80.002 60.7721 79.4414 60.9954 78.7441 61H76.0166V53.6035H77.2197V56.1533ZM77.2197 57.1855V59.9678H78.7236C79.0791 59.9678 79.3548 59.847 79.5508 59.6055C79.7513 59.3639 79.8516 59.029 79.8516 58.6006C79.8516 58.1813 79.7536 57.8418 79.5576 57.582C79.3617 57.3223 79.0928 57.1901 78.751 57.1855H77.2197ZM87.8018 61H86.5986V57.8418H83.9326V61H82.7158V53.6035H83.9326V56.8096H86.5986V53.6035H87.8018V61ZM91.042 56.1533H92.5664C93.2728 56.1579 93.8356 56.3743 94.2549 56.8027C94.6742 57.2311 94.8838 57.8145 94.8838 58.5527C94.8838 59.291 94.6719 59.8835 94.248 60.3301C93.8242 60.7721 93.2637 60.9954 92.5664 61H89.8389V53.6035H91.042V56.1533ZM97.1396 61H95.9297V53.6035H97.1396V61ZM91.042 57.1855V59.9678H92.5459C92.9014 59.9678 93.1771 59.847 93.373 59.6055C93.5736 59.3639 93.6738 59.029 93.6738 58.6006C93.6738 58.1813 93.5758 57.8418 93.3799 57.582C93.1839 57.3223 92.915 57.1901 92.5732 57.1855H91.042ZM103.244 53.6035H104.447V61H103.244V55.6064L100.564 61H99.3545V53.6035H100.564V59.0039L103.244 53.6035ZM103.955 50.9102C103.955 51.4616 103.766 51.9059 103.388 52.2432C103.014 52.5758 102.522 52.7422 101.911 52.7422C101.3 52.7422 100.806 52.5736 100.428 52.2363C100.049 51.8991 99.8604 51.457 99.8604 50.9102H100.893C100.893 51.2292 100.979 51.4798 101.152 51.6621C101.326 51.8398 101.578 51.9287 101.911 51.9287C102.23 51.9287 102.479 51.8398 102.656 51.6621C102.839 51.4844 102.93 51.2337 102.93 50.9102H103.955ZM112.411 54.0273C113.19 54.0273 113.81 54.3372 114.271 54.957C114.731 55.5723 114.961 56.3971 114.961 57.4316V57.5342C114.961 58.6279 114.706 59.5029 114.195 60.1592C113.685 60.8109 113.01 61.1367 112.172 61.1367C111.333 61.1367 110.659 60.8063 110.148 60.1455C109.638 59.4847 109.383 58.596 109.383 57.4795V56.8574C109.383 55.3307 109.622 54.1094 110.101 53.1934C110.579 52.2728 111.281 51.7054 112.206 51.4912C112.739 51.3682 113.099 51.2223 113.286 51.0537C113.478 50.8851 113.573 50.6618 113.573 50.3838H114.551L114.544 50.6504C114.489 51.5527 114.056 52.1247 113.245 52.3662L112.411 52.5986C111.81 52.7627 111.347 53.0521 111.023 53.4668C110.704 53.8815 110.497 54.4238 110.401 55.0938C110.957 54.3828 111.627 54.0273 112.411 54.0273ZM112.165 55.0664C111.682 55.0664 111.299 55.2715 111.017 55.6816C110.739 56.0918 110.6 56.7093 110.6 57.5342C110.6 58.3363 110.739 58.9674 111.017 59.4277C111.295 59.8835 111.68 60.1113 112.172 60.1113C112.664 60.1113 113.051 59.8812 113.334 59.4209C113.617 58.9606 113.758 58.2793 113.758 57.377C113.758 56.666 113.614 56.1032 113.327 55.6885C113.045 55.2738 112.657 55.0664 112.165 55.0664ZM121.592 53.6035V61H120.382V54.6494H118.434L118.317 57.1582C118.254 58.5482 118.067 59.5348 117.757 60.1182C117.447 60.6969 116.95 60.9909 116.267 61H115.863V59.8857L116.171 59.8584C116.508 59.8128 116.745 59.5872 116.882 59.1816C117.023 58.7715 117.117 57.9671 117.162 56.7686L117.278 53.6035H121.592ZM123.26 56.96C123.26 55.8844 123.52 55.0345 124.039 54.4102C124.563 53.7812 125.254 53.4668 126.11 53.4668C126.967 53.4668 127.655 53.7721 128.175 54.3828C128.699 54.9935 128.968 55.8252 128.981 56.8779V57.6572C128.981 58.7282 128.722 59.5758 128.202 60.2002C127.683 60.8245 126.99 61.1367 126.124 61.1367C125.267 61.1367 124.579 60.8337 124.06 60.2275C123.545 59.6214 123.278 58.8011 123.26 57.7666V56.96ZM124.47 57.6572C124.47 58.4183 124.618 59.0176 124.914 59.4551C125.215 59.888 125.618 60.1045 126.124 60.1045C127.19 60.1045 127.74 59.3343 127.771 57.7939V56.96C127.771 56.2035 127.621 55.6064 127.32 55.1689C127.02 54.7269 126.616 54.5059 126.11 54.5059C125.614 54.5059 125.215 54.7269 124.914 55.1689C124.618 55.6064 124.47 56.2012 124.47 56.9531V57.6572ZM132.55 57.8486H131.866V61H130.656V53.6035H131.866V56.7344H132.468L134.484 53.6035H135.927L133.459 57.124L136.104 61H134.587L132.55 57.8486ZM136.863 56.96C136.863 55.8844 137.123 55.0345 137.643 54.4102C138.167 53.7812 138.857 53.4668 139.714 53.4668C140.571 53.4668 141.259 53.7721 141.778 54.3828C142.302 54.9935 142.571 55.8252 142.585 56.8779V57.6572C142.585 58.7282 142.325 59.5758 141.806 60.2002C141.286 60.8245 140.593 61.1367 139.728 61.1367C138.871 61.1367 138.183 60.8337 137.663 60.2275C137.148 59.6214 136.882 58.8011 136.863 57.7666V56.96ZM138.073 57.6572C138.073 58.4183 138.221 59.0176 138.518 59.4551C138.818 59.888 139.222 60.1045 139.728 60.1045C140.794 60.1045 141.343 59.3343 141.375 57.7939V56.96C141.375 56.2035 141.225 55.6064 140.924 55.1689C140.623 54.7269 140.22 54.5059 139.714 54.5059C139.217 54.5059 138.818 54.7269 138.518 55.1689C138.221 55.6064 138.073 56.2012 138.073 56.9531V57.6572ZM147.773 59.3252L149.756 53.6035H151.26V61H150.057V55.9004L148.19 61H147.363L145.456 55.7773V61H144.253V53.6035H145.812L147.773 59.3252Z" fill="white"/>
<rect x="0.5" y="122.904" width="155" height="47" fill="#7F8A6E" stroke="#385526"/>
<rect x="0.5" y="68.9038" width="155" height="53" fill="white" stroke="#385526"/>
<path d="M61.8281 103.404H59.7422V88.9546L56.1562 90.5601V88.5913L61.5 86.2593H61.8281V103.404ZM76.2891 90.7944C76.2891 91.646 76.0977 92.4038 75.7148 93.0679C75.3398 93.7319 74.832 94.2515 74.1914 94.6265C74.9492 95.0171 75.543 95.5796 75.9727 96.314C76.4023 97.0405 76.6172 97.8687 76.6172 98.7983C76.6172 100.267 76.1992 101.443 75.3633 102.326C74.5352 103.201 73.4336 103.638 72.0586 103.638C70.6836 103.638 69.5781 103.201 68.7422 102.326C67.9141 101.443 67.5 100.267 67.5 98.7983C67.5 97.8608 67.7109 97.0249 68.1328 96.2905C68.5625 95.5483 69.1445 94.9897 69.8789 94.6147C69.2383 94.2397 68.7344 93.7241 68.3672 93.0679C68 92.4038 67.8164 91.646 67.8164 90.7944C67.8164 89.3569 68.2031 88.2163 68.9766 87.3726C69.7578 86.5288 70.7852 86.1069 72.0586 86.1069C73.3242 86.1069 74.3438 86.5249 75.1172 87.3608C75.8984 88.1968 76.2891 89.3413 76.2891 90.7944ZM74.543 98.7515C74.543 97.7749 74.3125 96.9937 73.8516 96.4077C73.3906 95.814 72.7852 95.5171 72.0352 95.5171C71.2695 95.5171 70.6641 95.814 70.2188 96.4077C69.7812 97.0015 69.5625 97.7827 69.5625 98.7515C69.5625 99.7358 69.7773 100.501 70.207 101.048C70.6445 101.595 71.2617 101.869 72.0586 101.869C72.8555 101.869 73.4688 101.595 73.8984 101.048C74.3281 100.501 74.543 99.7358 74.543 98.7515ZM74.2266 90.8296C74.2266 89.9624 74.0234 89.2554 73.6172 88.7085C73.2109 88.1616 72.6914 87.8882 72.0586 87.8882C71.3945 87.8882 70.8672 88.1577 70.4766 88.6968C70.0859 89.2358 69.8906 89.9468 69.8906 90.8296C69.8906 91.7202 70.0898 92.4272 70.4883 92.9507C70.8867 93.4741 71.4102 93.7358 72.0586 93.7358C72.7227 93.7358 73.25 93.4702 73.6406 92.939C74.0312 92.4077 74.2266 91.7046 74.2266 90.8296ZM88.4883 96.1265C88.4883 98.6421 88.1211 100.525 87.3867 101.775C86.6523 103.017 85.5 103.638 83.9297 103.638C82.4062 103.638 81.2695 103.041 80.5195 101.845C79.7695 100.65 79.3789 98.853 79.3477 96.4546V93.5249C79.3477 91.0327 79.7148 89.1733 80.4492 87.9468C81.1914 86.7202 82.3438 86.1069 83.9062 86.1069C85.4453 86.1069 86.582 86.689 87.3164 87.853C88.0586 89.0171 88.4492 90.7788 88.4883 93.1382V96.1265ZM86.4141 93.1616C86.4141 91.3569 86.2148 90.0288 85.8164 89.1772C85.418 88.3179 84.7812 87.8882 83.9062 87.8882C83.0547 87.8882 82.4297 88.3101 82.0312 89.1538C81.6328 89.9897 81.4258 91.2554 81.4102 92.9507V96.4663C81.4102 98.2632 81.6172 99.6147 82.0312 100.521C82.4453 101.419 83.0781 101.869 83.9297 101.869C84.7734 101.869 85.3945 101.443 85.793 100.591C86.1914 99.7397 86.3984 98.439 86.4141 96.689V93.1616ZM98.3438 99.0093C98.3438 98.2983 98.1484 97.7007 97.7578 97.2163C97.3672 96.7241 96.6953 96.271 95.7422 95.8569C94.3438 95.3491 93.3242 94.689 92.6836 93.8765C92.043 93.0562 91.7227 92.0171 91.7227 90.7593C91.7227 89.478 92.0312 88.4351 92.6484 87.6304C93.2734 86.8179 94.1211 86.3257 95.1914 86.1538V83.5757H96.8438V86.1655C97.9375 86.3608 98.7812 86.9194 99.375 87.8413C99.9766 88.7554 100.277 90.0054 100.277 91.5913H98.2266C98.2266 90.5054 98.0273 89.6343 97.6289 88.978C97.2305 88.3218 96.6836 87.9937 95.9883 87.9937C95.293 87.9937 94.75 88.2319 94.3594 88.7085C93.9766 89.1851 93.7852 89.8569 93.7852 90.7241C93.7852 91.5132 93.9922 92.146 94.4062 92.6226C94.8281 93.0913 95.5117 93.5249 96.457 93.9233C97.8711 94.4546 98.8828 95.1187 99.4922 95.9155C100.109 96.7046 100.418 97.728 100.418 98.9858C100.418 100.267 100.09 101.314 99.4336 102.126C98.7773 102.939 97.8359 103.427 96.6094 103.591V105.841H94.9805V103.591C93.7461 103.412 92.8008 102.873 92.1445 101.974C91.4883 101.076 91.1602 99.8765 91.1602 98.3765H93.2227C93.2227 99.4624 93.4414 100.298 93.8789 100.884C94.3164 101.47 94.9336 101.763 95.7305 101.763C96.543 101.763 97.1797 101.521 97.6406 101.037C98.1094 100.544 98.3438 99.8687 98.3438 99.0093Z" fill="black"/>
<path d="M34.6562 146.898H37.2266V148.266H34.6562V151.859H33.2656V148.266H30.6719V146.898H33.2656V143.578H34.6562V146.898ZM48.8984 153H42.5391V151.961L45.7812 147.664C46.2708 147.003 46.6094 146.461 46.7969 146.039C46.9896 145.612 47.0859 145.161 47.0859 144.688C47.0859 144.083 46.9453 143.594 46.6641 143.219C46.3828 142.844 46.013 142.656 45.5547 142.656C44.9766 142.656 44.5286 142.857 44.2109 143.258C43.8984 143.654 43.7422 144.227 43.7422 144.977H42.3594C42.3594 143.93 42.6458 143.083 43.2188 142.438C43.7917 141.792 44.5703 141.469 45.5547 141.469C46.4609 141.469 47.1745 141.747 47.6953 142.305C48.2161 142.857 48.4766 143.594 48.4766 144.516C48.4766 145.641 47.8906 146.971 46.7188 148.508L44.1875 151.82H48.8984V153ZM57.6172 148.383C57.6172 147.154 57.9141 146.182 58.5078 145.469C59.1068 144.75 59.8958 144.391 60.875 144.391C61.8542 144.391 62.6406 144.74 63.2344 145.438C63.8333 146.135 64.1406 147.086 64.1562 148.289V149.18C64.1562 150.404 63.8594 151.372 63.2656 152.086C62.6719 152.799 61.8802 153.156 60.8906 153.156C59.9115 153.156 59.125 152.81 58.5312 152.117C57.9427 151.424 57.638 150.487 57.6172 149.305V148.383ZM59 149.18C59 150.049 59.1693 150.734 59.5078 151.234C59.8516 151.729 60.3125 151.977 60.8906 151.977C62.1094 151.977 62.737 151.096 62.7734 149.336V148.383C62.7734 147.518 62.6016 146.836 62.2578 146.336C61.9141 145.831 61.4531 145.578 60.875 145.578C60.3073 145.578 59.8516 145.831 59.5078 146.336C59.1693 146.836 59 147.516 59 148.375V149.18ZM71.1094 145.719H68.8047V153H67.4297V145.719H65.1562V144.547H71.1094V145.719ZM78.6719 149.18C78.6719 150.518 78.4297 151.516 77.9453 152.172C77.4661 152.828 76.7865 153.156 75.9062 153.156C75.0573 153.156 74.4036 152.836 73.9453 152.195V156.25H72.5703V144.547H73.8203L73.8906 145.484C74.3542 144.755 75.0182 144.391 75.8828 144.391C76.8099 144.391 77.5026 144.714 77.9609 145.359C78.4193 146.005 78.6562 146.971 78.6719 148.258V149.18ZM77.2969 148.391C77.2969 147.443 77.151 146.745 76.8594 146.297C76.5677 145.844 76.099 145.617 75.4531 145.617C74.7917 145.617 74.2891 145.948 73.9453 146.609V151.008C74.2839 151.654 74.7917 151.977 75.4688 151.977C76.0938 151.977 76.5521 151.753 76.8438 151.305C77.1406 150.852 77.2917 150.161 77.2969 149.234V148.391ZM84.8047 153C84.7214 152.818 84.6615 152.51 84.625 152.078C84.1354 152.797 83.5104 153.156 82.75 153.156C81.9844 153.156 81.3854 152.943 80.9531 152.516C80.526 152.083 80.3125 151.477 80.3125 150.695C80.3125 149.836 80.6042 149.154 81.1875 148.648C81.7708 148.143 82.5703 147.885 83.5859 147.875H84.6016V146.977C84.6016 146.471 84.4896 146.112 84.2656 145.898C84.0417 145.685 83.7005 145.578 83.2422 145.578C82.8255 145.578 82.487 145.703 82.2266 145.953C81.9661 146.198 81.8359 146.51 81.8359 146.891H80.4531C80.4531 146.458 80.5807 146.047 80.8359 145.656C81.0911 145.26 81.4349 144.951 81.8672 144.727C82.2995 144.503 82.7812 144.391 83.3125 144.391C84.1771 144.391 84.8333 144.607 85.2812 145.039C85.7344 145.466 85.9661 146.091 85.9766 146.914V151.18C85.9818 151.831 86.0703 152.396 86.2422 152.875V153H84.8047ZM82.9609 151.898C83.2995 151.898 83.6224 151.805 83.9297 151.617C84.237 151.43 84.4609 151.195 84.6016 150.914V148.898H83.8203C83.1641 148.909 82.6458 149.057 82.2656 149.344C81.8854 149.625 81.6953 150.021 81.6953 150.531C81.6953 151.01 81.7917 151.359 81.9844 151.578C82.1771 151.792 82.5026 151.898 82.9609 151.898ZM91.3438 145.031C92.2344 145.031 92.9427 145.385 93.4688 146.094C93.9948 146.797 94.2578 147.74 94.2578 148.922V149.039C94.2578 150.289 93.9661 151.289 93.3828 152.039C92.7995 152.784 92.0286 153.156 91.0703 153.156C90.112 153.156 89.3411 152.779 88.7578 152.023C88.1745 151.268 87.8828 150.253 87.8828 148.977V148.266C87.8828 146.521 88.1562 145.125 88.7031 144.078C89.25 143.026 90.0521 142.378 91.1094 142.133C91.7188 141.992 92.1302 141.826 92.3438 141.633C92.5625 141.44 92.6719 141.185 92.6719 140.867H93.7891L93.7812 141.172C93.7188 142.203 93.224 142.857 92.2969 143.133L91.3438 143.398C90.6562 143.586 90.1276 143.917 89.7578 144.391C89.3932 144.865 89.1562 145.484 89.0469 146.25C89.6823 145.438 90.4479 145.031 91.3438 145.031ZM91.0625 146.219C90.5104 146.219 90.0729 146.453 89.75 146.922C89.4323 147.391 89.2734 148.096 89.2734 149.039C89.2734 149.956 89.4323 150.677 89.75 151.203C90.0677 151.724 90.5078 151.984 91.0703 151.984C91.6328 151.984 92.0755 151.721 92.3984 151.195C92.7214 150.669 92.8828 149.891 92.8828 148.859C92.8828 148.047 92.7188 147.404 92.3906 146.93C92.0677 146.456 91.625 146.219 91.0625 146.219ZM95.5859 148.383C95.5859 147.154 95.8828 146.182 96.4766 145.469C97.0755 144.75 97.8646 144.391 98.8438 144.391C99.8229 144.391 100.609 144.74 101.203 145.438C101.802 146.135 102.109 147.086 102.125 148.289V149.18C102.125 150.404 101.828 151.372 101.234 152.086C100.641 152.799 99.849 153.156 98.8594 153.156C97.8802 153.156 97.0938 152.81 96.5 152.117C95.9115 151.424 95.6068 150.487 95.5859 149.305V148.383ZM96.9688 149.18C96.9688 150.049 97.138 150.734 97.4766 151.234C97.8203 151.729 98.2812 151.977 98.8594 151.977C100.078 151.977 100.706 151.096 100.742 149.336V148.383C100.742 147.518 100.57 146.836 100.227 146.336C99.8828 145.831 99.4219 145.578 98.8438 145.578C98.276 145.578 97.8203 145.831 97.4766 146.336C97.138 146.836 96.9688 147.516 96.9688 148.375V149.18ZM109.078 145.719H106.773V153H105.398V145.719H103.125V144.547H109.078V145.719ZM112.828 149.398H112.047V153H110.664V144.547H112.047V148.125H112.734L115.039 144.547H116.688L113.867 148.57L116.891 153H115.156L112.828 149.398ZM122.789 144.547H124.164V153H122.789V146.836L119.727 153H118.344V144.547H119.727V150.719L122.789 144.547Z" fill="white"/>
</svg>
